<svg id="Component_212_1" data-name="Component 212 – 1" xmlns="http://www.w3.org/2000/svg" width="56" height="56" viewBox="0 0 56 56">
  <path id="livres" d="M72,28q0,28-28,28T16,28Q16,0,44,0T72,28Z" transform="translate(-16 0)" fill="#b30b80"/>
  <path id="Path_1297" data-name="Path 1297" d="M14.244,2.774A4.676,4.676,0,0,0,13.5,2.75H12a17.739,17.739,0,0,0-2.095.067,1.264,1.264,0,0,0-.789.3,1.264,1.264,0,0,0-.3.789A17.736,17.736,0,0,0,8.75,6V7.27c.64-.02,1.371-.02,2.208-.02h2.083c1.369,0,2.454,0,3.321.088a4.827,4.827,0,0,1,2.277.712,4.751,4.751,0,0,1,1.31,1.311,4.826,4.826,0,0,1,.712,2.277c.088.866.088,1.951.088,3.321v.083c0,1.369,0,2.454-.088,3.321a4.827,4.827,0,0,1-.712,2.277,4.75,4.75,0,0,1-1.31,1.31,4.826,4.826,0,0,1-2.277.712c-.866.088-1.951.088-3.321.088H10.958c-1.369,0-2.454,0-3.32-.088a4.826,4.826,0,0,1-2.277-.712,4.749,4.749,0,0,1-1.311-1.31,4.826,4.826,0,0,1-.712-2.277c-.088-.866-.088-1.951-.088-3.321v-.083c0-1.369,0-2.454.088-3.321a4.826,4.826,0,0,1,.712-2.277A4.75,4.75,0,0,1,5.361,8.051,4.445,4.445,0,0,1,7.25,7.386V5.948a18.324,18.324,0,0,1,.08-2.242,2.724,2.724,0,0,1,.726-1.65,2.724,2.724,0,0,1,1.65-.726,18.322,18.322,0,0,1,2.242-.08h1.625a5.119,5.119,0,0,1,.963.053A2.75,2.75,0,0,1,16.7,3.464a5.12,5.12,0,0,1,.053.963h0V5a.75.75,0,0,1-1.5,0V4.5a4.675,4.675,0,0,0-.024-.744A1.25,1.25,0,0,0,14.244,2.774ZM7.79,8.83a3.37,3.37,0,0,0-1.6.467,3.251,3.251,0,0,0-.9.9,3.37,3.37,0,0,0-.467,1.6c-.08.782-.08,1.79-.08,3.21s0,2.429.08,3.21a3.37,3.37,0,0,0,.467,1.6,3.251,3.251,0,0,0,.9.9,3.369,3.369,0,0,0,1.6.467c.782.08,1.79.08,3.21.08h2c1.42,0,2.429,0,3.21-.08a3.369,3.369,0,0,0,1.6-.467,3.25,3.25,0,0,0,.9-.9,3.37,3.37,0,0,0,.467-1.6c.08-.782.08-1.79.08-3.21s0-2.429-.08-3.21a3.37,3.37,0,0,0-.467-1.6,3.25,3.25,0,0,0-.9-.9,3.37,3.37,0,0,0-1.6-.467c-.781-.08-1.79-.08-3.21-.08H11C9.58,8.75,8.571,8.751,7.79,8.83ZM12.75,14a.75.75,0,0,0-1.5,0v2a.75.75,0,0,0,1.5,0Z" transform="translate(15.75 15.75)" fill="#fff" fill-rule="evenodd"/>
</svg>
