<svg xmlns="http://www.w3.org/2000/svg" width="19.5" height="19.5" viewBox="0 0 19.5 19.5"><path d="M10.944,2.25h2.113a36.526,36.526,0,0,1,4.433.153,4.711,4.711,0,0,1,2.87,1.238A4.712,4.712,0,0,1,21.6,6.511a36.546,36.546,0,0,1,.153,4.433h0v3.338a8.681,8.681,0,0,1-.182,2.363,4.745,4.745,0,0,1-.417,1.007,8.682,8.682,0,0,1-1.543,1.8l-.078.078-.078.078a8.682,8.682,0,0,1-1.8,1.543,4.745,4.745,0,0,1-1.007.417,8.681,8.681,0,0,1-2.363.182H10.943A36.546,36.546,0,0,1,6.511,21.6a4.712,4.712,0,0,1-2.87-1.238A4.711,4.711,0,0,1,2.4,17.489a36.526,36.526,0,0,1-.153-4.433V10.944A36.527,36.527,0,0,1,2.4,6.511a4.711,4.711,0,0,1,1.238-2.87A4.711,4.711,0,0,1,6.511,2.4,36.527,36.527,0,0,1,10.944,2.25ZM6.711,3.89A3.247,3.247,0,0,0,4.7,4.7,3.247,3.247,0,0,0,3.89,6.711,35.992,35.992,0,0,0,3.75,11v2a35.994,35.994,0,0,0,.14,4.289A3.247,3.247,0,0,0,4.7,19.3a3.247,3.247,0,0,0,2.009.812A35.984,35.984,0,0,0,11,20.25h3.172c.453,0,.8,0,1.078-.009v-.293a18.323,18.323,0,0,1,.08-2.243,2.485,2.485,0,0,1,2.376-2.376,18.3,18.3,0,0,1,2.243-.08h.293c.008-.278.009-.625.009-1.078V11a35.984,35.984,0,0,0-.14-4.289A3.247,3.247,0,0,0,19.3,4.7a3.247,3.247,0,0,0-2.009-.812A35.994,35.994,0,0,0,13,3.75H11A35.992,35.992,0,0,0,6.711,3.89ZM19.93,16.75a17.039,17.039,0,0,0-2.024.066,1.029,1.029,0,0,0-1.089,1.089,17.038,17.038,0,0,0-.066,2.024q.088-.042.173-.09a7.987,7.987,0,0,0,1.546-1.37,7.987,7.987,0,0,0,1.37-1.546Q19.888,16.838,19.93,16.75ZM6.25,7A.75.75,0,0,1,7,6.25h8a.75.75,0,0,1,0,1.5H7A.75.75,0,0,1,6.25,7ZM7,10.25a.75.75,0,0,0,0,1.5h6a.75.75,0,0,0,0-1.5ZM6.25,15A.75.75,0,0,1,7,14.25H9a.75.75,0,0,1,0,1.5H7A.75.75,0,0,1,6.25,15Z" transform="translate(-2.25 -2.25)" fill="#fff" fill-rule="evenodd"/></svg>