<svg id="Component_425_2" data-name="Component 425 – 2" xmlns="http://www.w3.org/2000/svg" width="56" height="56" viewBox="0 0 56 56">
  <path id="livres" d="M72,28q0,28-28,28T16,28Q16,0,44,0T72,28Z" transform="translate(-16 0)" fill="#707070" opacity="0.762"/>
  <path id="Path_1155" data-name="Path 1155" d="M18.749,3.332c-.352.052-.8.158-1.471.314L12.256,4.828a15.811,15.811,0,0,0-1.632.434,1.253,1.253,0,0,0-.6.369A1.253,1.253,0,0,0,9.8,6.3,15.816,15.816,0,0,0,9.75,7.992v.048l10.5-2.625c0-.382-.009-.676-.03-.919a1.432,1.432,0,0,0-.138-.6,1.25,1.25,0,0,0-.717-.568A1.432,1.432,0,0,0,18.749,3.332ZM20.25,16A2.25,2.25,0,1,0,18,18.25,2.25,2.25,0,0,0,20.25,16Zm0-9.039V13a3.75,3.75,0,1,0,1.5,3V5.967c0-.643,0-1.173-.037-1.6a2.862,2.862,0,0,0-.335-1.223A2.75,2.75,0,0,0,19.8,1.894a2.862,2.862,0,0,0-1.268-.046c-.423.062-.939.183-1.565.331h0l-.032.008L11.912,3.368l-.043.01a16.453,16.453,0,0,0-1.761.475A2.718,2.718,0,0,0,8.844,4.7a2.718,2.718,0,0,0-.535,1.423A16.452,16.452,0,0,0,8.25,7.947V16a3.75,3.75,0,1,0,1.5,3V9.586ZM6,16.75A2.25,2.25,0,1,1,3.75,19,2.25,2.25,0,0,1,6,16.75Z" transform="translate(15 15.725)" fill="#fff" fill-rule="evenodd"/>
</svg>
