<svg id="Component_213_1" data-name="Component 213 – 1" xmlns="http://www.w3.org/2000/svg" width="56" height="56" viewBox="0 0 56 56">
  <g id="livres">
    <path id="livres-2" data-name="livres" d="M72,28q0,28-28,28T16,28Q16,0,44,0T72,28Z" transform="translate(-16 0)" fill="#707070" opacity="0.762"/>
  </g>
  <g id="Group_2854" data-name="Group 2854" transform="translate(16.93 17.715)">
    <g id="Path_1083" data-name="Path 1083" transform="translate(-1207.443 -1844.969)" fill="none" stroke-miterlimit="10">
      <path d="M1224.555,1859.141c-.27-.366-.553-.708-.814-1.068a10.847,10.847,0,0,1-.742-1.187,13.357,13.357,0,0,0-.806-1.348,5.462,5.462,0,0,0-1.25-1.3,4.035,4.035,0,0,0-1.86-.718,4.161,4.161,0,0,0-3.677,1.319,7.561,7.561,0,0,0-1,1.375c-.121.206-.235.416-.35.626s-.22.41-.344.607-.252.386-.386.574c-.264.369-.547.711-.822,1.082a5.422,5.422,0,0,0-1.135,2.266,3.25,3.25,0,0,0,.192,1.721,3.569,3.569,0,0,0,.965,1.369,4.275,4.275,0,0,0,1.729.9,5.794,5.794,0,0,0,1.146.175,3.956,3.956,0,0,0,.628,0,3.838,3.838,0,0,0,.685-.143c.211-.062.42-.134.633-.193.079-.022.159-.044.24-.06l.059-.01h.005c.025,0,.018,0,0,0l.029,0a7.418,7.418,0,0,1,.854-.036,7.714,7.714,0,0,1,.831.04l.029,0,.065.012c.088.02.176.043.263.067.216.059.43.126.647.184a4.72,4.72,0,0,0,.676.135,3.849,3.849,0,0,0,.631.008,5.721,5.721,0,0,0,1.145-.167,4.107,4.107,0,0,0,1.7-.879,3.508,3.508,0,0,0,.941-1.361,3.4,3.4,0,0,0,.2-1.7A5.237,5.237,0,0,0,1224.555,1859.141Z" stroke="none"/>
      <path d="M 1218.499633789062 1854.782104492188 C 1218.116577148438 1854.782104492188 1217.74609375 1854.849853515625 1217.428100585938 1854.97802734375 C 1217.033081054688 1855.13720703125 1216.671264648438 1855.3896484375 1216.3525390625 1855.728637695312 C 1216.075439453125 1856.023315429688 1215.814453125 1856.3857421875 1215.531616210938 1856.869262695312 C 1215.423828125 1857.053588867188 1215.317993164062 1857.24658203125 1215.201538085938 1857.460083007812 L 1215.157348632812 1857.541625976562 C 1215.052978515625 1857.734252929688 1214.945190429688 1857.93359375 1214.814453125 1858.140380859375 C 1214.678100585938 1858.355834960938 1214.534423828125 1858.569580078125 1214.387573242188 1858.775024414062 C 1214.221313476562 1859.0078125 1214.052490234375 1859.224975585938 1213.88916015625 1859.435180664062 C 1213.771606445312 1859.58642578125 1213.660522460938 1859.729370117188 1213.551147460938 1859.876708984375 C 1213.140014648438 1860.430297851562 1212.746948242188 1861.01953125 1212.6552734375 1861.578247070312 C 1212.599975585938 1861.915283203125 1212.641235351562 1862.280395507812 1212.771484375 1862.606201171875 C 1212.907104492188 1862.945678710938 1213.11865234375 1863.246826171875 1213.38330078125 1863.477416992188 C 1213.706787109375 1863.759399414062 1214.123413085938 1863.973022460938 1214.58837890625 1864.095092773438 C 1214.858520507812 1864.166015625 1215.157592773438 1864.211059570312 1215.477661132812 1864.22900390625 C 1215.585571289062 1864.235107421875 1215.673950195312 1864.239135742188 1215.7548828125 1864.239135742188 C 1215.8115234375 1864.239135742188 1215.858520507812 1864.237182617188 1215.89697265625 1864.233154296875 C 1216.028686523438 1864.21923828125 1216.172729492188 1864.1884765625 1216.350219726562 1864.136108398438 C 1216.431030273438 1864.112182617188 1216.511474609375 1864.0869140625 1216.591796875 1864.061645507812 C 1216.723022460938 1864.020385742188 1216.858642578125 1863.977783203125 1217.002197265625 1863.938110351562 C 1217.098266601562 1863.911376953125 1217.211181640625 1863.880737304688 1217.335571289062 1863.855712890625 L 1217.351684570312 1863.852661132812 C 1217.376342773438 1863.848022460938 1217.401123046875 1863.84375 1217.426025390625 1863.839599609375 L 1217.426635742188 1863.839599609375 L 1217.485595703125 1863.828491210938 L 1217.51806640625 1863.826049804688 C 1217.527099609375 1863.824951171875 1217.53662109375 1863.823974609375 1217.546752929688 1863.822998046875 C 1217.893432617188 1863.783935546875 1218.220336914062 1863.778686523438 1218.49462890625 1863.778686523438 L 1218.545654296875 1863.778686523438 C 1218.91845703125 1863.779541015625 1219.22705078125 1863.794799804688 1219.516845703125 1863.826904296875 L 1219.569213867188 1863.833740234375 C 1219.585327148438 1863.836059570312 1219.6015625 1863.838623046875 1219.61767578125 1863.84130859375 C 1219.662353515625 1863.848754882812 1219.707153320312 1863.857421875 1219.750732421875 1863.867065429688 C 1219.873168945312 1863.894409179688 1219.988403320312 1863.925170898438 1220.074462890625 1863.948852539062 C 1220.182250976562 1863.978271484375 1220.289428710938 1864.009521484375 1220.396728515625 1864.040771484375 C 1220.5078125 1864.0732421875 1220.61279296875 1864.103759765625 1220.715087890625 1864.131225585938 C 1220.899291992188 1864.180786132812 1221.0595703125 1864.213134765625 1221.203857421875 1864.230102539062 C 1221.251953125 1864.235595703125 1221.30908203125 1864.238403320312 1221.378662109375 1864.238403320312 C 1221.45947265625 1864.238403320312 1221.546752929688 1864.234619140625 1221.62109375 1864.23095703125 C 1221.940185546875 1864.21533203125 1222.23779296875 1864.17236328125 1222.505859375 1864.103271484375 C 1222.9580078125 1863.98681640625 1223.3603515625 1863.781127929688 1223.669677734375 1863.50830078125 C 1223.923706054688 1863.284301757812 1224.12744140625 1862.987548828125 1224.258911132812 1862.650268554688 C 1224.387451171875 1862.320068359375 1224.431274414062 1861.949584960938 1224.38232421875 1861.60693359375 C 1224.302368164062 1861.04833984375 1223.915649414062 1860.463012695312 1223.509399414062 1859.913330078125 C 1223.394775390625 1859.75830078125 1223.276977539062 1859.606811523438 1223.152221679688 1859.4462890625 C 1222.999755859375 1859.250244140625 1222.842163085938 1859.047607421875 1222.6875 1858.833618164062 C 1222.3876953125 1858.418579101562 1222.115844726562 1857.984130859375 1221.8564453125 1857.505981445312 C 1221.611694335938 1857.055053710938 1221.38818359375 1856.652221679688 1221.130859375 1856.287841796875 C 1220.828369140625 1855.859619140625 1220.517822265625 1855.533569335938 1220.181762695312 1855.291015625 C 1219.82275390625 1855.032104492188 1219.3974609375 1854.869750976562 1218.91796875 1854.80859375 C 1218.779663085938 1854.791015625 1218.638916015625 1854.782104492188 1218.499633789062 1854.782104492188 M 1218.499755859375 1853.482055664062 C 1218.6953125 1853.482055664062 1218.890258789062 1853.49462890625 1219.082153320312 1853.51904296875 C 1219.752319335938 1853.6044921875 1220.392578125 1853.840209960938 1220.942260742188 1854.236694335938 C 1221.435791015625 1854.5927734375 1221.842651367188 1855.042358398438 1222.192626953125 1855.537841796875 C 1222.4951171875 1855.966064453125 1222.749145507812 1856.425537109375 1222.9990234375 1856.885864257812 C 1223.222534179688 1857.297973632812 1223.466674804688 1857.692138671875 1223.741333007812 1858.072387695312 C 1224.002075195312 1858.43310546875 1224.284545898438 1858.77490234375 1224.554931640625 1859.140869140625 C 1225.055541992188 1859.818115234375 1225.547485351562 1860.571899414062 1225.669189453125 1861.4228515625 C 1225.750610351562 1861.992065429688 1225.679077148438 1862.585815429688 1225.470336914062 1863.121948242188 C 1225.267456054688 1863.642456054688 1224.949340820312 1864.113159179688 1224.529418945312 1864.4833984375 C 1224.044555664062 1864.9111328125 1223.454345703125 1865.201416015625 1222.830078125 1865.362182617188 C 1222.456420898438 1865.45849609375 1222.070068359375 1865.510498046875 1221.684936523438 1865.529418945312 C 1221.475341796875 1865.539794921875 1221.262939453125 1865.545776367188 1221.053833007812 1865.521362304688 C 1220.82470703125 1865.494506835938 1220.600219726562 1865.446533203125 1220.377685546875 1865.38671875 C 1220.161254882812 1865.32861328125 1219.947265625 1865.261840820312 1219.731079101562 1865.20263671875 C 1219.643920898438 1865.1787109375 1219.556274414062 1865.155639648438 1219.468017578125 1865.135986328125 C 1219.446655273438 1865.131225585938 1219.425048828125 1865.127075195312 1219.403442382812 1865.12353515625 C 1219.393676757812 1865.121826171875 1219.3837890625 1865.120483398438 1219.3740234375 1865.119018554688 C 1219.081909179688 1865.086669921875 1218.78857421875 1865.079345703125 1218.49462890625 1865.07861328125 C 1218.22607421875 1865.07861328125 1217.955688476562 1865.0849609375 1217.688720703125 1865.115234375 C 1217.679321289062 1865.116333007812 1217.669799804688 1865.11767578125 1217.66015625 1865.119018554688 C 1217.674072265625 1865.117065429688 1217.680541992188 1865.115112304688 1217.655395507812 1865.119384765625 C 1217.652587890625 1865.11962890625 1217.649780273438 1865.120361328125 1217.646606445312 1865.120483398438 C 1217.644653320312 1865.120727539062 1217.642578125 1865.120849609375 1217.640747070312 1865.120971679688 C 1217.643798828125 1865.120727539062 1217.647094726562 1865.120483398438 1217.650024414062 1865.120239257812 C 1217.63037109375 1865.12353515625 1217.610717773438 1865.126708984375 1217.591186523438 1865.13037109375 C 1217.51025390625 1865.146606445312 1217.430297851562 1865.168334960938 1217.350952148438 1865.1904296875 C 1217.138427734375 1865.249267578125 1216.929565429688 1865.320556640625 1216.718139648438 1865.382934570312 C 1216.493408203125 1865.44921875 1216.266357421875 1865.50146484375 1216.032958984375 1865.526000976562 C 1215.8251953125 1865.547485351562 1215.61279296875 1865.538452148438 1215.404541015625 1865.526977539062 C 1215.018676757812 1865.50537109375 1214.632080078125 1865.45068359375 1214.258056640625 1865.352416992188 C 1213.623657226562 1865.185791015625 1213.024658203125 1864.889404296875 1212.529052734375 1864.457397460938 C 1212.10205078125 1864.085327148438 1211.774169921875 1863.613647460938 1211.564331054688 1863.088745117188 C 1211.347534179688 1862.546142578125 1211.27783203125 1861.9443359375 1211.372436523438 1861.367797851562 C 1211.511108398438 1860.5224609375 1212.006469726562 1859.776245117188 1212.507568359375 1859.1015625 C 1212.782836914062 1858.730712890625 1213.066040039062 1858.388549804688 1213.329711914062 1858.019409179688 C 1213.463745117188 1857.831909179688 1213.592407226562 1857.640502929688 1213.715576171875 1857.445678710938 C 1213.839721679688 1857.249267578125 1213.948486328125 1857.043212890625 1214.059448242188 1856.839111328125 C 1214.173950195312 1856.629150390625 1214.288696289062 1856.41943359375 1214.409423828125 1856.213012695312 C 1214.6953125 1855.724365234375 1215.016845703125 1855.251220703125 1215.405639648438 1854.837890625 C 1215.83837890625 1854.377685546875 1216.35546875 1854.008666992188 1216.942260742188 1853.772216796875 C 1217.432006835938 1853.57470703125 1217.967895507812 1853.482055664062 1218.499755859375 1853.482055664062 Z M 1217.66015625 1865.119018554688 C 1217.659912109375 1865.119018554688 1217.65966796875 1865.119140625 1217.659423828125 1865.119140625 C 1217.65966796875 1865.119140625 1217.659912109375 1865.119018554688 1217.66015625 1865.119018554688 Z" stroke="none" fill="#fff"/>
    </g>
    <g id="Path_1084" data-name="Path 1084" transform="translate(-1200.261 -919.04)" fill="none" stroke-miterlimit="10">
      <path d="M1205.186,925.893a4.508,4.508,0,0,0,.4.419,3.264,3.264,0,0,0,1.087.669,2.92,2.92,0,0,0,1.244.185,2.98,2.98,0,0,0,2.016-1.083,3.153,3.153,0,0,0,.329-.482,4.325,4.325,0,0,0,.263-.6,4.645,4.645,0,0,0,.266-1.318,4.984,4.984,0,0,0-.5-2.429,4.277,4.277,0,0,0-1.346-1.616,3.081,3.081,0,0,0-1.805-.6,2.8,2.8,0,0,0-1.8.7,3.648,3.648,0,0,0-1.059,1.7,4.907,4.907,0,0,0,.909,4.451Z" stroke="none"/>
      <path d="M 1207.703735351562 925.8737182617188 C 1207.737548828125 925.8737182617188 1207.770629882812 925.8723754882812 1207.802368164062 925.8696899414062 C 1208.213500976562 925.8350830078125 1208.641845703125 925.6016235351562 1208.920532226562 925.260009765625 C 1209.00244140625 925.1597900390625 1209.066040039062 925.0673217773438 1209.114990234375 924.9776611328125 C 1209.175659179688 924.866455078125 1209.235107421875 924.7297973632812 1209.296630859375 924.5596923828125 C 1209.403686523438 924.2642211914062 1209.467651367188 923.9451904296875 1209.486450195312 923.6116943359375 C 1209.519653320312 923.0245361328125 1209.38671875 922.3893432617188 1209.111938476562 921.82275390625 C 1208.889038085938 921.3629760742188 1208.566650390625 920.9736938476562 1208.179565429688 920.697021484375 C 1207.861083984375 920.4693603515625 1207.499755859375 920.3439331054688 1207.162353515625 920.3439331054688 L 1207.14599609375 920.3440551757812 C 1206.806884765625 920.34814453125 1206.465942382812 920.48388671875 1206.18603515625 920.7262573242188 C 1205.894775390625 920.978515625 1205.658203125 921.367431640625 1205.519653320312 921.8212890625 C 1205.3671875 922.3209228515625 1205.342041015625 922.8877563476562 1205.447143554688 923.4605712890625 C 1205.55810546875 924.065673828125 1205.806884765625 924.6049194335938 1206.1865234375 925.0631103515625 C 1206.27197265625 925.1661987304688 1206.366577148438 925.266357421875 1206.465942382812 925.359130859375 C 1206.654663085938 925.5346069335938 1206.875244140625 925.670166015625 1207.121704101562 925.761962890625 C 1207.31494140625 925.8340454101562 1207.521728515625 925.8737182617188 1207.703735351562 925.8737182617188 M 1207.703735351562 927.1737060546875 C 1207.351928710938 927.1737060546875 1206.993896484375 927.1017456054688 1206.667602539062 926.9801025390625 C 1206.263916015625 926.8296508789062 1205.896362304688 926.6046752929688 1205.580688476562 926.3111572265625 C 1205.440307617188 926.1801147460938 1205.30810546875 926.04052734375 1205.185546875 925.8926391601562 C 1204.659423828125 925.257568359375 1204.317016601562 924.5052490234375 1204.16845703125 923.695068359375 C 1204.031616210938 922.9488525390625 1204.054077148438 922.1697998046875 1204.276245117188 921.4418334960938 C 1204.472290039062 920.7994384765625 1204.82373046875 920.1864013671875 1205.3349609375 919.7435913085938 C 1205.835083007812 919.3104858398438 1206.465698242188 919.0521240234375 1207.13037109375 919.0441284179688 C 1207.776245117188 919.037109375 1208.413208007812 919.2660522460938 1208.935546875 919.639404296875 C 1209.513061523438 920.0521850585938 1209.97265625 920.6180419921875 1210.28173828125 921.2557983398438 C 1210.644409179688 922.0035400390625 1210.831420898438 922.8536376953125 1210.784423828125 923.68505859375 C 1210.759033203125 924.133544921875 1210.671997070312 924.580078125 1210.518920898438 925.0025634765625 C 1210.445068359375 925.2064208984375 1210.360229492188 925.4095458984375 1210.25634765625 925.6000366210938 C 1210.162841796875 925.7713623046875 1210.050903320312 925.93115234375 1209.927490234375 926.082275390625 C 1209.435180664062 926.6856689453125 1208.689819335938 927.0995483398438 1207.911499023438 927.1651000976562 C 1207.842651367188 927.1708984375 1207.773315429688 927.1737060546875 1207.703735351562 927.1737060546875 Z" stroke="none" fill="#fff"/>
    </g>
    <g id="Path_1085" data-name="Path 1085" transform="translate(-784.375 -1680.346)" fill="none" stroke-miterlimit="10">
      <path d="M789.277,1692.446a2.592,2.592,0,0,0,.483-.778,2.628,2.628,0,0,0,.175-.881,3.342,3.342,0,0,0-.516-1.908c-.071-.112-.134-.228-.213-.336a3.061,3.061,0,0,0-.272-.326,2.87,2.87,0,0,0-.616-.48,2.9,2.9,0,0,0-1.5-.389,2.87,2.87,0,0,0-.78.122,3.079,3.079,0,0,0-.4.156l-.081.039a.716.716,0,0,0-.121.085q-.076.061-.148.127a2.876,2.876,0,0,0-.455,3.666,4.585,4.585,0,0,0,.544.71,3.348,3.348,0,0,0,.706.552,2.931,2.931,0,0,0,.9.352,2.869,2.869,0,0,0,.542.056,2.455,2.455,0,0,0,1.02-.222A2.251,2.251,0,0,0,789.277,1692.446Z" stroke="none"/>
      <path d="M 787.53076171875 1691.911010742188 C 787.68994140625 1691.911010742188 787.8507690429688 1691.874877929688 788.0089111328125 1691.803588867188 C 788.1137084960938 1691.75634765625 788.2220458984375 1691.674438476562 788.313720703125 1691.5732421875 C 788.41455078125 1691.461791992188 788.4933471679688 1691.333740234375 788.5545654296875 1691.181762695312 C 788.6021728515625 1691.063354492188 788.6298828125 1690.913208007812 788.6368408203125 1690.735473632812 C 788.6526489257812 1690.330322265625 788.5413818359375 1689.918823242188 788.3231811523438 1689.576293945312 C 788.2935791015625 1689.529663085938 788.2650756835938 1689.482788085938 788.2366943359375 1689.435791015625 C 788.2068481445312 1689.386474609375 788.176025390625 1689.33544921875 788.15771484375 1689.310424804688 C 788.1018676757812 1689.234130859375 788.05078125 1689.17236328125 788.002197265625 1689.122314453125 C 787.9049072265625 1689.022216796875 787.788818359375 1688.931884765625 787.6663208007812 1688.860961914062 C 787.42724609375 1688.722534179688 787.1448364257812 1688.646240234375 786.8712768554688 1688.646240234375 L 786.8440551757812 1688.646484375 C 786.6986694335938 1688.649047851562 786.5516967773438 1688.671752929688 786.418701171875 1688.712158203125 C 786.357666015625 1688.730712890625 786.2903442382812 1688.75634765625 786.21923828125 1688.788208007812 C 786.202880859375 1688.802001953125 786.1871337890625 1688.815795898438 786.1723022460938 1688.82958984375 C 785.960693359375 1689.025512695312 785.8027954101562 1689.289428710938 785.7277221679688 1689.572631835938 C 785.6533813476562 1689.853149414062 785.6571044921875 1690.1572265625 785.7381591796875 1690.428833007812 C 785.78125 1690.573364257812 785.84521484375 1690.712890625 785.9230346679688 1690.83251953125 C 786.0357055664062 1691.005493164062 786.1696166992188 1691.201538085938 786.3089599609375 1691.344360351562 C 786.4345703125 1691.47314453125 786.5835571289062 1691.589477539062 786.7395629882812 1691.680541992188 C 786.9116821289062 1691.780883789062 787.0826416015625 1691.849853515625 787.2343139648438 1691.8798828125 C 787.3358764648438 1691.900146484375 787.4354248046875 1691.910522460938 787.5281372070312 1691.911010742188 L 787.53076171875 1691.911010742188 M 787.5306396484375 1693.211059570312 C 787.3453979492188 1693.20947265625 787.1618041992188 1693.19091796875 786.9811401367188 1693.155029296875 C 786.6658935546875 1693.092529296875 786.3616943359375 1692.965087890625 786.0845947265625 1692.803466796875 C 785.82666015625 1692.652954101562 785.5864868164062 1692.465576171875 785.3781127929688 1692.251831054688 C 785.1694946289062 1692.037963867188 784.9963989257812 1691.791748046875 784.8336791992188 1691.541870117188 C 784.685302734375 1691.31396484375 784.5701904296875 1691.061157226562 784.492431640625 1690.800537109375 C 784.3419189453125 1690.296142578125 784.3363647460938 1689.748168945312 784.4711303710938 1689.239624023438 C 784.6085205078125 1688.72119140625 784.8953857421875 1688.240234375 785.2890625 1687.875732421875 C 785.3367919921875 1687.83154296875 785.3861694335938 1687.789184570312 785.4369506835938 1687.74853515625 C 785.475830078125 1687.717407226562 785.5134887695312 1687.68603515625 785.5579833984375 1687.663452148438 C 785.5847778320312 1687.64990234375 785.61181640625 1687.63671875 785.6390380859375 1687.6240234375 C 785.769287109375 1687.5634765625 785.9034423828125 1687.510009765625 786.0408935546875 1687.46826171875 C 786.2926025390625 1687.391723632812 786.5581665039062 1687.351318359375 786.8211059570312 1687.3466796875 C 787.3397216796875 1687.337158203125 787.8668823242188 1687.474853515625 788.3179321289062 1687.736083984375 C 788.5430908203125 1687.866455078125 788.7529907226562 1688.029663085938 788.934326171875 1688.216186523438 C 789.033203125 1688.317993164062 789.1229248046875 1688.428100585938 789.2067260742188 1688.542602539062 C 789.2855224609375 1688.650146484375 789.3484497070312 1688.765991210938 789.419921875 1688.878295898438 C 789.7786254882812 1689.44140625 789.9619140625 1690.119018554688 789.9358520507812 1690.786254882812 C 789.924072265625 1691.087158203125 789.8732299804688 1691.38720703125 789.760498046875 1691.667236328125 C 789.6448364257812 1691.954467773438 789.4856567382812 1692.215698242188 789.2774658203125 1692.445678710938 C 789.0723266601562 1692.672119140625 788.8221435546875 1692.862915039062 788.5433349609375 1692.988647460938 C 788.2238159179688 1693.1328125 787.8818359375 1693.211059570312 787.5306396484375 1693.211059570312 Z" stroke="none" fill="#fff"/>
    </g>
    <g id="Path_1086" data-name="Path 1086" transform="translate(-2049.204 -918.615)" fill="none" stroke-miterlimit="10">
      <path d="M2061.266,924.985a3.056,3.056,0,0,0,1.554,1.526,3.231,3.231,0,0,0,.522.177l.016,0,.019,0a2.674,2.674,0,0,0,.708.044,3.166,3.166,0,0,0,1.753-.689,4.273,4.273,0,0,0,.836-.906,4.672,4.672,0,0,0,.56-1.078,5.077,5.077,0,0,0,.27-1.184,4.61,4.61,0,0,0-.005-1.1,4.086,4.086,0,0,0-.744-1.948,2.989,2.989,0,0,0-1.586-1.122,2.694,2.694,0,0,0-.953-.085,3.09,3.09,0,0,0-.971.258,3.842,3.842,0,0,0-1.537,1.309,4.889,4.889,0,0,0-.828,2.108,4.812,4.812,0,0,0,0,1.387A4.763,4.763,0,0,0,2061.266,924.985Z" stroke="none"/>
      <path d="M 2063.900390625 925.447998046875 C 2063.92822265625 925.447998046875 2063.955322265625 925.4469604492188 2063.980712890625 925.4449462890625 C 2064.119384765625 925.433837890625 2064.248046875 925.4114990234375 2064.363525390625 925.378662109375 C 2064.599609375 925.3114013671875 2064.82568359375 925.1939086914062 2065.035400390625 925.029052734375 C 2065.229248046875 924.876953125 2065.4228515625 924.6643676757812 2065.61083984375 924.3975219726562 C 2065.77294921875 924.16748046875 2065.90869140625 923.9054565429688 2066.01416015625 923.6184692382812 C 2066.10791015625 923.3636474609375 2066.174560546875 923.0670776367188 2066.212158203125 922.7359008789062 C 2066.24267578125 922.4681396484375 2066.241455078125 922.2020263671875 2066.208740234375 921.9436645507812 C 2066.142333984375 921.4158935546875 2065.971435546875 920.9559326171875 2065.714599609375 920.61376953125 C 2065.5400390625 920.3810424804688 2065.244140625 920.0797119140625 2064.826171875 919.9656982421875 C 2064.666259765625 919.9221801757812 2064.493408203125 919.9060668945312 2064.3359375 919.9207763671875 C 2064.1474609375 919.9383544921875 2063.96240234375 919.98828125 2063.770751953125 920.0731201171875 C 2063.405029296875 920.2352905273438 2063.0576171875 920.5375366210938 2062.766845703125 920.946533203125 C 2062.45849609375 921.3804931640625 2062.25048828125 921.914794921875 2062.165283203125 922.4910278320312 C 2062.115234375 922.8321533203125 2062.114501953125 923.1641845703125 2062.1630859375 923.5066528320312 C 2062.2060546875 923.8092041015625 2062.2998046875 924.1176147460938 2062.449951171875 924.4495849609375 C 2062.62158203125 924.8287353515625 2062.951904296875 925.1532592773438 2063.33349609375 925.3175048828125 C 2063.442626953125 925.3644409179688 2063.540283203125 925.3984985351562 2063.6318359375 925.4215087890625 C 2063.729248046875 925.4390869140625 2063.819580078125 925.447998046875 2063.900390625 925.447998046875 M 2063.900390625 926.748046875 C 2063.72509765625 926.748046875 2063.550048828125 926.7289428710938 2063.376953125 926.6964111328125 C 2063.37060546875 926.6954345703125 2063.3642578125 926.6943359375 2063.358154296875 926.69287109375 C 2063.352294921875 926.6918334960938 2063.34716796875 926.6904296875 2063.341796875 926.6889038085938 C 2063.162353515625 926.645751953125 2062.989501953125 926.584716796875 2062.81982421875 926.51171875 C 2062.1396484375 926.2188720703125 2061.57080078125 925.6600341796875 2061.265625 924.9854125976562 C 2061.078125 924.571044921875 2060.93994140625 924.1402587890625 2060.8759765625 923.6891479492188 C 2060.81005859375 923.2257690429688 2060.81103515625 922.764892578125 2060.879150390625 922.3018188476562 C 2060.989990234375 921.5512084960938 2061.2666015625 920.8133544921875 2061.70703125 920.1935424804688 C 2062.10009765625 919.6409912109375 2062.61962890625 919.1614990234375 2063.243896484375 918.8847045898438 C 2063.554931640625 918.7470092773438 2063.876220703125 918.6580200195312 2064.215087890625 918.6264038085938 C 2064.533935546875 918.5968627929688 2064.8603515625 918.6275024414062 2065.168212890625 918.7115478515625 C 2065.814697265625 918.8878173828125 2066.35595703125 919.3025512695312 2066.75439453125 919.8334350585938 C 2067.17822265625 920.3984375 2067.410888671875 921.0855102539062 2067.49853515625 921.7811279296875 C 2067.544921875 922.1465454101562 2067.54541015625 922.517333984375 2067.503662109375 922.8832397460938 C 2067.4580078125 923.286376953125 2067.37451171875 923.6863403320312 2067.234130859375 924.067626953125 C 2067.09375 924.4491577148438 2066.907958984375 924.8135986328125 2066.673828125 925.1460571289062 C 2066.43798828125 925.480712890625 2066.1611328125 925.798095703125 2065.838134765625 926.0516357421875 C 2065.504638671875 926.3136596679688 2065.12841796875 926.5125122070312 2064.719482421875 926.6289672851562 C 2064.5126953125 926.6878662109375 2064.299072265625 926.7235717773438 2064.084716796875 926.7407836914062 C 2064.023193359375 926.7456665039062 2063.9619140625 926.748046875 2063.900390625 926.748046875 Z" stroke="none" fill="#fff"/>
    </g>
    <g id="Path_1087" data-name="Path 1087" transform="translate(-2588.542 -1680.591)" fill="none" stroke-miterlimit="10">
      <path d="M2610.665,1689.915a2.939,2.939,0,0,0-.62-1.5,2.643,2.643,0,0,0-.258-.281q-.074-.069-.152-.133a.989.989,0,0,0-.107-.083c-.029-.018-.062-.031-.093-.046a2.874,2.874,0,0,0-2.306-.082,2.936,2.936,0,0,0-1.265.978,2.728,2.728,0,0,0-.2.317,3.35,3.35,0,0,0-.538,1.9,2.672,2.672,0,0,0,.166.9,2.592,2.592,0,0,0,.47.778,2.256,2.256,0,0,0,.728.555,2.44,2.44,0,0,0,1.009.235,2.947,2.947,0,0,0,1.81-.634,3.472,3.472,0,0,0,.665-.673c.084-.112.163-.23.24-.347a2.637,2.637,0,0,0,.191-.341A2.873,2.873,0,0,0,2610.665,1689.915Z" stroke="none"/>
      <path d="M 2608.184326171875 1688.893188476562 C 2607.98193359375 1688.893188476562 2607.79150390625 1688.928833007812 2607.6181640625 1688.999145507812 C 2607.33056640625 1689.115600585938 2607.091796875 1689.300048828125 2606.908203125 1689.547119140625 C 2606.87060546875 1689.598022460938 2606.8349609375 1689.653930664062 2606.80224609375 1689.71337890625 L 2606.7783203125 1689.757202148438 L 2606.751220703125 1689.799072265625 C 2606.52880859375 1690.14013671875 2606.412353515625 1690.551513671875 2606.423095703125 1690.956909179688 C 2606.427978515625 1691.139892578125 2606.454345703125 1691.294677734375 2606.50146484375 1691.415893554688 C 2606.55908203125 1691.564697265625 2606.635986328125 1691.692626953125 2606.736328125 1691.807006835938 C 2606.826904296875 1691.910034179688 2606.9345703125 1691.993896484375 2607.040283203125 1692.043334960938 C 2607.1953125 1692.116088867188 2607.354248046875 1692.153930664062 2607.51171875 1692.15576171875 L 2607.5263671875 1692.155883789062 C 2607.857666015625 1692.155883789062 2608.208984375 1692.026245117188 2608.51513671875 1691.791259765625 C 2608.674072265625 1691.669067382812 2608.810791015625 1691.530639648438 2608.934814453125 1691.365844726562 C 2608.9951171875 1691.285888671875 2609.059814453125 1691.188110351562 2609.12890625 1691.083740234375 C 2609.165771484375 1691.028198242188 2609.1982421875 1690.970092773438 2609.226318359375 1690.91015625 C 2609.353515625 1690.638427734375 2609.40576171875 1690.3388671875 2609.373779296875 1690.066284179688 C 2609.3369140625 1689.753173828125 2609.219970703125 1689.470581054688 2609.025634765625 1689.225341796875 C 2608.98583984375 1689.174926757812 2608.941650390625 1689.126831054688 2608.896728515625 1689.084350585938 C 2608.8779296875 1689.066650390625 2608.858154296875 1689.048950195312 2608.83837890625 1689.032348632812 C 2608.7080078125 1688.97412109375 2608.58251953125 1688.93505859375 2608.46484375 1688.916015625 C 2608.371337890625 1688.90087890625 2608.27685546875 1688.893188476562 2608.184326171875 1688.893188476562 M 2608.184326171875 1687.593139648438 C 2608.34765625 1687.593139648438 2608.51123046875 1687.606567382812 2608.6728515625 1687.6328125 C 2608.938232421875 1687.67578125 2609.193359375 1687.761596679688 2609.435791015625 1687.876220703125 C 2609.466796875 1687.890869140625 2609.4990234375 1687.904663085938 2609.5283203125 1687.922241210938 C 2609.566162109375 1687.944946289062 2609.60107421875 1687.976684570312 2609.6357421875 1688.004760742188 C 2609.687744140625 1688.047119140625 2609.73828125 1688.091186523438 2609.787353515625 1688.137329101562 C 2609.8798828125 1688.224731445312 2609.966064453125 1688.318725585938 2610.045166015625 1688.418701171875 C 2610.389892578125 1688.853637695312 2610.60009765625 1689.363525390625 2610.664794921875 1689.914672851562 C 2610.72705078125 1690.442749023438 2610.62841796875 1690.98095703125 2610.40380859375 1691.461059570312 C 2610.3486328125 1691.579223632812 2610.284423828125 1691.693359375 2610.21240234375 1691.802001953125 C 2610.135009765625 1691.9189453125 2610.056884765625 1692.036987304688 2609.972412109375 1692.14892578125 C 2609.7802734375 1692.404541015625 2609.560546875 1692.62744140625 2609.30712890625 1692.822143554688 C 2608.79736328125 1693.21337890625 2608.171875 1693.455810546875 2607.5263671875 1693.455810546875 C 2607.5166015625 1693.455810546875 2607.5068359375 1693.455810546875 2607.4970703125 1693.455688476562 C 2607.146728515625 1693.45166015625 2606.804443359375 1693.36865234375 2606.488037109375 1693.22021484375 C 2606.210693359375 1693.09033203125 2605.961669921875 1692.894775390625 2605.759765625 1692.664916992188 C 2605.556640625 1692.43359375 2605.40087890625 1692.173217773438 2605.28955078125 1691.886596679688 C 2605.17919921875 1691.601684570312 2605.131591796875 1691.296020507812 2605.12353515625 1690.991333007812 C 2605.10595703125 1690.32275390625 2605.296875 1689.649780273438 2605.661865234375 1689.089477539062 C 2605.72216796875 1688.979248046875 2605.78955078125 1688.873168945312 2605.864501953125 1688.772216796875 C 2606.191162109375 1688.332275390625 2606.622314453125 1688 2607.1298828125 1687.794311523438 C 2607.46533203125 1687.658203125 2607.824462890625 1687.593139648438 2608.184326171875 1687.593139648438 Z" stroke="none" fill="#fff"/>
    </g>
  </g>
</svg>
