<svg xmlns="http://www.w3.org/2000/svg" width="19.5" height="19.5" viewBox="0 0 19.5 19.5">
  <path id="Path_748" data-name="Path 748" d="M17.5,2.25h-.038c-.67,0-1.228,0-1.681.046a2.781,2.781,0,0,0-1.309.417,2.749,2.749,0,0,0-.759.759A2.781,2.781,0,0,0,13.3,4.781c-.046.452-.046,1.011-.046,1.681v.077c0,.67,0,1.228.046,1.681a2.781,2.781,0,0,0,.418,1.309,2.748,2.748,0,0,0,.759.759,2.78,2.78,0,0,0,1.309.418c.452.046,1.011.046,1.681.046h.077c.67,0,1.228,0,1.681-.046a2.78,2.78,0,0,0,1.309-.418,2.748,2.748,0,0,0,.759-.759A2.781,2.781,0,0,0,21.7,8.219c.046-.452.046-1.011.046-1.681V6.462c0-.67,0-1.228-.046-1.681a2.781,2.781,0,0,0-.417-1.309,2.749,2.749,0,0,0-.759-.759A2.781,2.781,0,0,0,19.219,2.3c-.452-.046-1.011-.046-1.681-.046Zm-11,0H6.462c-.67,0-1.228,0-1.681.046a2.781,2.781,0,0,0-1.309.417,2.75,2.75,0,0,0-.759.759A2.781,2.781,0,0,0,2.3,4.781c-.046.452-.046,1.011-.046,1.681h0v.077h0c0,.67,0,1.228.046,1.681a2.781,2.781,0,0,0,.417,1.309,2.749,2.749,0,0,0,.759.759,2.781,2.781,0,0,0,1.309.418c.452.046,1.011.046,1.681.046h.077c.67,0,1.228,0,1.681-.046a2.781,2.781,0,0,0,1.309-.418,2.749,2.749,0,0,0,.759-.759A2.781,2.781,0,0,0,10.7,8.219c.046-.452.046-1.011.046-1.681V6.462c0-.67,0-1.228-.046-1.681a2.781,2.781,0,0,0-.418-1.309,2.749,2.749,0,0,0-.759-.759A2.781,2.781,0,0,0,8.219,2.3C7.767,2.25,7.208,2.25,6.538,2.25H6.5Zm-.038,11h.077c.67,0,1.228,0,1.681.046a2.781,2.781,0,0,1,1.309.418,2.748,2.748,0,0,1,.759.759,2.78,2.78,0,0,1,.418,1.309c.046.452.046,1.011.046,1.681v.077c0,.67,0,1.228-.046,1.681a2.78,2.78,0,0,1-.418,1.309,2.748,2.748,0,0,1-.759.759,2.781,2.781,0,0,1-1.309.417c-.452.046-1.011.046-1.681.046H6.462c-.67,0-1.228,0-1.681-.046a2.781,2.781,0,0,1-1.309-.417,2.749,2.749,0,0,1-.759-.759A2.781,2.781,0,0,1,2.3,19.219c-.046-.452-.046-1.011-.046-1.681v-.077c0-.67,0-1.228.046-1.681a2.781,2.781,0,0,1,.417-1.309,2.749,2.749,0,0,1,.759-.759A2.781,2.781,0,0,1,4.781,13.3C5.233,13.25,5.792,13.25,6.462,13.25Zm11.038,0h-.038c-.669,0-1.228,0-1.681.046a2.782,2.782,0,0,0-1.309.418,2.748,2.748,0,0,0-.759.759,2.782,2.782,0,0,0-.418,1.309c-.046.452-.046,1.011-.046,1.681h0v.077h0c0,.669,0,1.228.046,1.681a2.782,2.782,0,0,0,.418,1.309,2.748,2.748,0,0,0,.759.759,2.78,2.78,0,0,0,1.309.417c.452.046,1.011.046,1.681.046h.077c.67,0,1.228,0,1.681-.046a2.78,2.78,0,0,0,1.309-.417,2.748,2.748,0,0,0,.759-.759,2.78,2.78,0,0,0,.417-1.309c.046-.452.046-1.011.046-1.681v-.077c0-.67,0-1.228-.046-1.681a2.78,2.78,0,0,0-.417-1.309,2.748,2.748,0,0,0-.759-.759,2.782,2.782,0,0,0-1.309-.418c-.452-.046-1.011-.046-1.681-.046H17.5Z" transform="translate(-2.25 -2.25)" fill="#b30b80" fill-rule="evenodd"/>
</svg>
