<svg xmlns="http://www.w3.org/2000/svg" width="21.5" height="18.922" viewBox="0 0 21.5 18.922"><path d="M5,11.617a.657.657,0,0,0-1.09-.466l-1.38,1.38A.75.75,0,1,1,1.47,11.47L8.641,4.3l.037-.037h0A18.323,18.323,0,0,1,10.32,2.732,2.724,2.724,0,0,1,12,2.079a2.724,2.724,0,0,1,1.68.654,18.324,18.324,0,0,1,1.642,1.529h0l.037.037L22.53,11.47a.75.75,0,1,1-1.061,1.061l-1.38-1.38a.657.657,0,0,0-1.09.466h0V15c0,2.828,0,4.243-.879,5.121S15.828,21,13,21H11c-2.828,0-4.243,0-5.121-.879S5,17.829,5,15V11.617Z" transform="translate(-1.25 -2.079)" fill="#920c63" fill-rule="evenodd"/></svg>