<svg id="Component_211_2" data-name="Component 211 – 2" xmlns="http://www.w3.org/2000/svg" width="21.5" height="15.5" viewBox="0 0 21.5 15.5">
  <path id="Path_721" data-name="Path 721" d="M2.75,12a3.776,3.776,0,0,1,.493-1.591A7.858,7.858,0,0,1,4.884,8.3,10.2,10.2,0,0,1,12,5.75,10.2,10.2,0,0,1,19.116,8.3a7.86,7.86,0,0,1,1.64,2.108A3.777,3.777,0,0,1,21.25,12a3.777,3.777,0,0,1-.493,1.591,7.859,7.859,0,0,1-1.64,2.108A10.2,10.2,0,0,1,12,18.25,10.2,10.2,0,0,1,4.884,15.7a7.858,7.858,0,0,1-1.64-2.108A3.776,3.776,0,0,1,2.75,12ZM12,4.25A11.7,11.7,0,0,0,3.866,7.2,9.356,9.356,0,0,0,1.913,9.716,5.2,5.2,0,0,0,1.25,12a5.205,5.205,0,0,0,.663,2.284A9.356,9.356,0,0,0,3.866,16.8,11.7,11.7,0,0,0,12,19.75,11.7,11.7,0,0,0,20.134,16.8a9.356,9.356,0,0,0,1.953-2.517A5.205,5.205,0,0,0,22.75,12a5.2,5.2,0,0,0-.663-2.284A9.355,9.355,0,0,0,20.134,7.2,11.7,11.7,0,0,0,12,4.25ZM9.75,12A2.25,2.25,0,1,1,12,14.25,2.25,2.25,0,0,1,9.75,12ZM12,8.25A3.75,3.75,0,1,0,15.75,12,3.75,3.75,0,0,0,12,8.25Z" transform="translate(-1.25 -4.25)" fill="#fff" fill-rule="evenodd"/>
</svg>
