<svg xmlns="http://www.w3.org/2000/svg" xmlns:xlink="http://www.w3.org/1999/xlink" width="117.941" height="117.941" viewBox="0 0 117.941 117.941"><defs><filter id="a" x="0" y="0" width="117.941" height="117.941" filterUnits="userSpaceOnUse"><feOffset dy="5" input="SourceAlpha"/><feGaussianBlur stdDeviation="14" result="b"/><feFlood flood-opacity="0.161"/><feComposite operator="in" in2="b"/><feComposite in="SourceGraphic"/></filter></defs><g transform="translate(58.971 37) rotate(45)"><g transform="matrix(0.71, -0.71, 0.71, 0.71, -67.86, 15.54)" filter="url(#a)"><path d="M12,0A12,12,0,1,1,0,12,12,12,0,0,1,12,0Z" transform="translate(58.97 37) rotate(45)" fill="#fff"/></g><path d="M4.5.75A.75.75,0,0,0,3,.75V3H.75a.75.75,0,0,0,0,1.5H3V6.75a.75.75,0,0,0,1.5,0V4.5H6.75a.75.75,0,0,0,0-1.5H4.5Z" transform="translate(8.125 7.889)" fill="#9d0970" fill-rule="evenodd"/></g></svg>