<svg xmlns="http://www.w3.org/2000/svg" width="17.5" height="20.538" viewBox="0 0 17.5 20.538"><path d="M4.75,10.148A7.206,7.206,0,0,1,7,4.593,7.446,7.446,0,0,1,12,2.75a7.446,7.446,0,0,1,5,1.843,7.206,7.206,0,0,1,2.253,5.555c0,3.274-1.965,6.136-3.982,8.2a10.706,10.706,0,0,1-1.67,1.52,2.728,2.728,0,0,1-1.6.424,2.727,2.727,0,0,1-1.6-.424,10.7,10.7,0,0,1-1.67-1.519C6.715,16.284,4.75,13.422,4.75,10.148Zm16,0A8.7,8.7,0,0,0,18,3.481,8.944,8.944,0,0,0,12,1.25,8.944,8.944,0,0,0,6,3.481,8.7,8.7,0,0,0,3.25,10.148c0,3.865,2.3,7.09,4.41,9.246l.047.048h0a11.588,11.588,0,0,0,1.886,1.685A4.218,4.218,0,0,0,12,21.788a4.217,4.217,0,0,0,2.407-.661,11.589,11.589,0,0,0,1.886-1.685h0l.047-.048C18.45,17.238,20.75,14.014,20.75,10.148ZM9.75,10A2.25,2.25,0,1,1,12,12.25,2.25,2.25,0,0,1,9.75,10ZM12,6.25A3.75,3.75,0,1,0,15.75,10,3.75,3.75,0,0,0,12,6.25Z" transform="translate(-3.25 -1.25)" fill="#9d0970" fill-rule="evenodd"/></svg>