<svg xmlns="http://www.w3.org/2000/svg" width="21.5" height="18.5" viewBox="0 0 21.5 18.5">
  <path id="Path_742" data-name="Path 742" d="M5.884,2.25h2.1a6.6,6.6,0,0,1,1.806.144,3.751,3.751,0,0,1,.8.329A6.6,6.6,0,0,1,11.959,3.9h0l.071.071a5.866,5.866,0,0,0,1.118,1,2.249,2.249,0,0,0,.477.2,5.869,5.869,0,0,0,1.5.086h.933a27.418,27.418,0,0,1,3.337.117,3.717,3.717,0,0,1,2.26.982,3.717,3.717,0,0,1,.982,2.26,27.394,27.394,0,0,1,.117,3.337v2.11a27.394,27.394,0,0,1-.117,3.337,3.717,3.717,0,0,1-.982,2.26,3.717,3.717,0,0,1-2.26.982,27.394,27.394,0,0,1-3.337.117H7.945a27.394,27.394,0,0,1-3.337-.117,3.717,3.717,0,0,1-2.26-.982,3.717,3.717,0,0,1-.982-2.26,27.418,27.418,0,0,1-.117-3.337V6.884a7.5,7.5,0,0,1,.128-1.855A3.75,3.75,0,0,1,4.029,2.378,7.5,7.5,0,0,1,5.884,2.25ZM6,3.75a7.1,7.1,0,0,0-1.582.077A2.25,2.25,0,0,0,2.827,5.418,7.1,7.1,0,0,0,2.75,7v7a26.862,26.862,0,0,0,.1,3.192,2.254,2.254,0,0,0,.556,1.4,2.255,2.255,0,0,0,1.4.556A26.856,26.856,0,0,0,8,19.25h8a26.855,26.855,0,0,0,3.192-.1,2.254,2.254,0,0,0,1.4-.556,2.254,2.254,0,0,0,.556-1.4A26.855,26.855,0,0,0,21.25,14V12a26.855,26.855,0,0,0-.1-3.192,2.255,2.255,0,0,0-.556-1.4,2.254,2.254,0,0,0-1.4-.556A26.862,26.862,0,0,0,16,6.75h-.979a6.6,6.6,0,0,1-1.806-.144,3.751,3.751,0,0,1-.8-.329A6.6,6.6,0,0,1,11.041,5.1h0L10.97,5.03a5.866,5.866,0,0,0-1.118-1,2.25,2.25,0,0,0-.477-.2,5.869,5.869,0,0,0-1.5-.086Zm6,7A2.25,2.25,0,1,0,14.25,13,2.25,2.25,0,0,0,12,10.75ZM8.25,13A3.75,3.75,0,1,1,12,16.75,3.75,3.75,0,0,1,8.25,13ZM18,11a1,1,0,1,0-1-1A1,1,0,0,0,18,11Z" transform="translate(-1.25 -2.25)" fill="#b30b80" fill-rule="evenodd"/>
</svg>
