<svg id="Component_211_1" data-name="Component 211 – 1" xmlns="http://www.w3.org/2000/svg" width="56" height="56" viewBox="0 0 56 56">
  <path id="livres" d="M72,28q0,28-28,28T16,28Q16,0,44,0T72,28Z" transform="translate(-16 0)" fill="#707070" opacity="0.762"/>
  <path id="Path_1170" data-name="Path 1170" d="M5,3.75A1.25,1.25,0,1,0,6.25,5,1.25,1.25,0,0,0,5,3.75ZM2.25,5A2.75,2.75,0,1,1,5,7.75,2.75,2.75,0,0,1,2.25,5ZM5,10.75A1.25,1.25,0,1,0,6.25,12,1.25,1.25,0,0,0,5,10.75ZM2.25,12A2.75,2.75,0,1,1,5,14.75,2.75,2.75,0,0,1,2.25,12Zm1.5,7A1.25,1.25,0,1,1,5,20.25,1.25,1.25,0,0,1,3.75,19ZM5,16.25A2.75,2.75,0,1,0,7.75,19,2.75,2.75,0,0,0,5,16.25Zm7-12.5A1.25,1.25,0,1,0,13.25,5,1.25,1.25,0,0,0,12,3.75ZM9.25,5A2.75,2.75,0,1,1,12,7.75,2.75,2.75,0,0,1,9.25,5Zm1.5,7A1.25,1.25,0,1,1,12,13.25,1.25,1.25,0,0,1,10.75,12ZM12,9.25A2.75,2.75,0,1,0,14.75,12,2.75,2.75,0,0,0,12,9.25Zm0,8.5A1.25,1.25,0,1,0,13.25,19,1.25,1.25,0,0,0,12,17.75ZM9.25,19A2.75,2.75,0,1,1,12,21.75,2.75,2.75,0,0,1,9.25,19Zm8.5-14A1.25,1.25,0,1,1,19,6.25,1.25,1.25,0,0,1,17.75,5ZM19,2.25A2.75,2.75,0,1,0,21.75,5,2.75,2.75,0,0,0,19,2.25Zm0,8.5A1.25,1.25,0,1,0,20.25,12,1.25,1.25,0,0,0,19,10.75ZM16.25,12A2.75,2.75,0,1,1,19,14.75,2.75,2.75,0,0,1,16.25,12Zm1.5,7A1.25,1.25,0,1,1,19,20.25,1.25,1.25,0,0,1,17.75,19ZM19,16.25A2.75,2.75,0,1,0,21.75,19,2.75,2.75,0,0,0,19,16.25Z" transform="translate(16 16)" fill="#fff" fill-rule="evenodd"/>
</svg>
