<svg xmlns="http://www.w3.org/2000/svg" width="19.42" height="19.42" viewBox="0 0 19.42 19.42"><path d="M5.463,2.25h.126a4.872,4.872,0,0,1,.829.042A2.75,2.75,0,0,1,8.452,3.88a4.872,4.872,0,0,1,.242.794l.015.058.414,1.654.009.036c.14.56.259,1.036.316,1.439a2.717,2.717,0,0,1-.074,1.259,2.717,2.717,0,0,1-.681,1.062c-.283.292-.659.606-1.1.977l-.029.024L5.948,12.531a13.9,13.9,0,0,0,5.523,5.523l1.348-1.612.024-.029c.37-.443.685-.819.977-1.1a2.493,2.493,0,0,1,2.321-.755c.4.057.878.176,1.439.316l.036.009,1.654.414.058.015a4.875,4.875,0,0,1,.794.242,2.75,2.75,0,0,1,1.588,2.033,4.878,4.878,0,0,1,.042.829v.125a4.468,4.468,0,0,1-.066.983,2.856,2.856,0,0,1-2.348,2.13,3.834,3.834,0,0,1-.885-.02l-.047,0a20.026,20.026,0,0,1-7.085-1.957,15.462,15.462,0,0,1-6.989-6.989A20.026,20.026,0,0,1,2.375,5.6l0-.047a3.833,3.833,0,0,1-.02-.886A2.856,2.856,0,0,1,4.48,2.316,4.473,4.473,0,0,1,5.463,2.25Zm7.4,16.482a19.113,19.113,0,0,0,5.692,1.4,2.718,2.718,0,0,0,.6.029,1.363,1.363,0,0,0,1.067-.968,3.655,3.655,0,0,0,.03-.721,4.282,4.282,0,0,0-.019-.629,1.25,1.25,0,0,0-.722-.924,4.265,4.265,0,0,0-.605-.171l-1.654-.414c-.606-.152-1.006-.25-1.322-.3a1.028,1.028,0,0,0-1.065.347c-.229.223-.494.538-.895,1.017ZM5.27,11.142,6.6,10.032c.479-.4.794-.665,1.017-.895a1.249,1.249,0,0,0,.331-.481,1.249,1.249,0,0,0,.015-.584c-.045-.316-.144-.716-.3-1.322L7.253,5.1a4.276,4.276,0,0,0-.171-.605,1.25,1.25,0,0,0-.924-.722,4.275,4.275,0,0,0-.629-.019,3.654,3.654,0,0,0-.721.03,1.363,1.363,0,0,0-.968,1.067,2.717,2.717,0,0,0,.029.6A19.112,19.112,0,0,0,5.27,11.142Z" transform="translate(-2.332 -2.25)" fill="#8b8b8b" fill-rule="evenodd"/></svg>