<svg xmlns="http://www.w3.org/2000/svg" width="15.5" height="19.5" viewBox="0 0 15.5 19.5"><path d="M12.318,2.321,12,3c.318-.679.318-.679.318-.679h0l.006,0,.02.009.068.034c.058.029.14.072.243.127.206.112.5.278.841.5a15.561,15.561,0,0,1,2.529,2.029,11.976,11.976,0,0,1,3.721,8.612A7.923,7.923,0,0,1,12,21.75a7.923,7.923,0,0,1-7.75-8.114A9.618,9.618,0,0,1,5.872,8.374a10.709,10.709,0,0,1,1.11-1.423c.153-.164.281-.291.374-.379.046-.044.084-.078.111-.1L7.5,6.442l.01-.009,0,0h0L8,7l-.485-.572A.75.75,0,0,1,8.75,7a14.377,14.377,0,0,0,.221,3.419,1.254,1.254,0,0,0,.353.646A1,1,0,0,0,10,11.25c.37,0,.653-.178.9-.7A6.733,6.733,0,0,0,11.377,8.2a26.642,26.642,0,0,0-.016-2.916c-.015-.3-.032-.59-.048-.868C11.279,3.855,11.25,3.351,11.25,3a.75.75,0,0,1,1.068-.679ZM7.277,8.973q-.074.107-.149.221A8.119,8.119,0,0,0,5.75,13.636,6.424,6.424,0,0,0,12,20.25a6.424,6.424,0,0,0,6.25-6.614,10.478,10.478,0,0,0-3.279-7.548A14.061,14.061,0,0,0,12.81,4.337c.016.268.033.561.048.876A28.072,28.072,0,0,1,12.873,8.3a8.135,8.135,0,0,1-.618,2.9A2.45,2.45,0,0,1,10,12.75a2.478,2.478,0,0,1-1.636-.533,2.72,2.72,0,0,1-.835-1.386A8.329,8.329,0,0,1,7.277,8.973Z" transform="translate(-4.25 -2.25)" fill="#9d0970" fill-rule="evenodd"/></svg>