<svg xmlns="http://www.w3.org/2000/svg" width="15.5" height="21.5" viewBox="0 0 15.5 21.5">
  <path id="Path_831" data-name="Path 831" d="M42.958,30.25h.083c1.369,0,2.454,0,3.32.088a4.827,4.827,0,0,1,2.277.712,4.753,4.753,0,0,1,1.311,1.31,4.827,4.827,0,0,1,.712,2.277c.088.866.088,1.951.088,3.32v6.083c0,1.369,0,2.454-.088,3.32a4.827,4.827,0,0,1-.712,2.277,4.753,4.753,0,0,1-1.311,1.311,4.827,4.827,0,0,1-2.277.712c-.866.088-1.951.088-3.32.088h-.083c-1.369,0-2.454,0-3.32-.088a4.827,4.827,0,0,1-2.277-.712,4.753,4.753,0,0,1-1.311-1.311,4.827,4.827,0,0,1-.712-2.277c-.088-.866-.088-1.951-.088-3.32V37.958c0-1.369,0-2.454.088-3.32a4.827,4.827,0,0,1,.712-2.277,4.753,4.753,0,0,1,1.311-1.31,4.827,4.827,0,0,1,2.277-.712C40.5,30.25,41.589,30.25,42.958,30.25ZM39.79,31.83a3.369,3.369,0,0,0-1.6.467,3.249,3.249,0,0,0-.9.9,3.369,3.369,0,0,0-.467,1.6c-.079.782-.08,1.79-.08,3.21v6c0,1.42,0,2.429.08,3.21a3.369,3.369,0,0,0,.467,1.6,3.249,3.249,0,0,0,.9.9,3.369,3.369,0,0,0,1.6.467c.782.079,1.79.08,3.21.08s2.429,0,3.21-.08a3.369,3.369,0,0,0,1.6-.467,3.249,3.249,0,0,0,.9-.9,3.369,3.369,0,0,0,.467-1.6c.079-.782.08-1.79.08-3.21V38c0-1.42,0-2.429-.08-3.21a3.369,3.369,0,0,0-.467-1.6,3.249,3.249,0,0,0-.9-.9,3.369,3.369,0,0,0-1.6-.467c-.782-.08-1.79-.08-3.21-.08S40.571,31.751,39.79,31.83ZM40.25,48a.75.75,0,0,1,.75-.75h4a.75.75,0,0,1,0,1.5H41A.75.75,0,0,1,40.25,48ZM43,35a1,1,0,1,0-1-1A1,1,0,0,0,43,35Z" transform="translate(-35.25 -30.25)" fill="#b30b80" fill-rule="evenodd"/>
</svg>
