<svg xmlns="http://www.w3.org/2000/svg" width="56" height="56" viewBox="0 0 56 56">
  <g id="Group_2470" data-name="Group 2470" transform="translate(0 0)">
    <path id="livres" d="M72,28q0,28-28,28T16,28Q16,0,44,0T72,28Z" transform="translate(-16)" fill="#b30b80"/>
    <g id="Group_2038" data-name="Group 2038" transform="translate(-2148.699 -2265.125)">
      <path id="Tracé_1093" data-name="Tracé 1093" d="M2179.419,2284.423a.75.75,0,0,1,1.023-1.1c.013.012.025.024.037.037l4,4a.751.751,0,0,1,0,1.061h0l-4,4a.75.75,0,0,1-1.078-1.042l.018-.019,2.719-2.72h-12.189a.75.75,0,0,1,0-1.5h12.189Z" fill="#fff" fill-rule="evenodd"/>
      <path id="Tracé_1093-2" data-name="Tracé 1093" d="M2179.419,2294.952a.75.75,0,0,1,1.023-1.1c.013.012.025.025.037.038l4,4a.75.75,0,0,1,0,1.06h0l-4,4a.75.75,0,1,1-1.078-1.043l.018-.018,2.719-2.72h-12.189a.75.75,0,0,1,0-1.5h12.189Z" fill="#fff" fill-rule="evenodd"/>
    </g>
  </g>
</svg>
