<svg xmlns="http://www.w3.org/2000/svg" width="21.5" height="17.5" viewBox="0 0 21.5 17.5"><path d="M10,3.25H9.944A36.529,36.529,0,0,0,5.511,3.4a4.711,4.711,0,0,0-2.87,1.238A4.711,4.711,0,0,0,1.4,7.511a36.527,36.527,0,0,0-.153,4.433v.113A36.526,36.526,0,0,0,1.4,16.489a4.711,4.711,0,0,0,1.238,2.87A4.712,4.712,0,0,0,5.511,20.6a36.546,36.546,0,0,0,4.433.153h4.113a36.545,36.545,0,0,0,4.432-.153,4.712,4.712,0,0,0,2.87-1.238,4.712,4.712,0,0,0,1.238-2.87,36.545,36.545,0,0,0,.153-4.432h0v-.113h0A36.546,36.546,0,0,0,22.6,7.511a4.712,4.712,0,0,0-1.238-2.87A4.711,4.711,0,0,0,18.489,3.4a36.529,36.529,0,0,0-4.433-.153H10ZM3.7,5.7A3.247,3.247,0,0,1,5.711,4.89,35.992,35.992,0,0,1,10,4.75h4a35.994,35.994,0,0,1,4.289.14A3.247,3.247,0,0,1,20.3,5.7a3.247,3.247,0,0,1,.812,2.009A35.985,35.985,0,0,1,21.25,12a35.986,35.986,0,0,1-.14,4.289A3.247,3.247,0,0,1,20.3,18.3a3.247,3.247,0,0,1-2.009.812A35.986,35.986,0,0,1,14,19.25H10a35.984,35.984,0,0,1-4.289-.14A3.247,3.247,0,0,1,3.7,18.3a3.247,3.247,0,0,1-.812-2.009A35.994,35.994,0,0,1,2.75,12a35.993,35.993,0,0,1,.14-4.289A3.247,3.247,0,0,1,3.7,5.7ZM6.416,7.376a.75.75,0,1,0-.832,1.248l6,4a.75.75,0,0,0,.832,0l6-4a.75.75,0,0,0-.832-1.248L12,11.1Z" transform="translate(-1.25 -3.25)" fill="#8b8b8b" fill-rule="evenodd"/></svg>