<svg xmlns="http://www.w3.org/2000/svg" width="15.5" height="15.5" viewBox="0 0 15.5 15.5"><path d="M12.25,5A.75.75,0,0,1,13,4.25h6a.75.75,0,0,1,.75.75v6a.75.75,0,0,1-1.5,0V6.811L16.03,9.03l-1.5,1.5A.75.75,0,0,1,13.47,9.47l1.5-1.5,2.22-2.22H13A.75.75,0,0,1,12.25,5ZM5,12.25a.75.75,0,0,1,.75.75v4.189l2.22-2.22,1.5-1.5A.75.75,0,1,1,10.53,14.53l-1.5,1.5-2.22,2.22H11a.75.75,0,0,1,0,1.5H5A.75.75,0,0,1,4.25,19V13A.75.75,0,0,1,5,12.25Z" transform="translate(-4.25 -4.25)" fill="#fff" fill-rule="evenodd"/></svg>