<svg xmlns="http://www.w3.org/2000/svg" width="19.5" height="21.5" viewBox="0 0 19.5 21.5">
  <path id="Path_1317" data-name="Path 1317" d="M76.75,11a.75.75,0,0,0-1.5,0v1.273q-.281.011-.53.031a4.888,4.888,0,0,0-1.821.436A4.749,4.749,0,0,0,70.74,14.9,4.888,4.888,0,0,0,70.3,16.72c-.054.679-.054,1.52-.054,2.581v3.755a36.546,36.546,0,0,0,.153,4.433A4.233,4.233,0,0,0,74.511,31.6a36.545,36.545,0,0,0,4.432.153h2.113a36.545,36.545,0,0,0,4.432-.153A4.233,4.233,0,0,0,89.6,27.489a36.545,36.545,0,0,0,.153-4.433h0V20.944h0a36.545,36.545,0,0,0-.153-4.433,4.712,4.712,0,0,0-1.238-2.87,4.712,4.712,0,0,0-2.87-1.238q-.349-.047-.739-.076V11a.75.75,0,0,0-1.5,0v1.263c-.662-.013-1.391-.013-2.194-.013H76.75Zm6.5,3v-.237c-.653-.013-1.4-.013-2.25-.013H76.75V14a.75.75,0,0,1-1.5,0v-.226c-.146.006-.282.015-.411.025a3.432,3.432,0,0,0-1.276.286,3.249,3.249,0,0,0-1.477,1.477,3.432,3.432,0,0,0-.286,1.276c-.049.612-.049,1.394-.049,2.495V23a35.986,35.986,0,0,0,.14,4.289A3.247,3.247,0,0,0,72.7,29.3a3.247,3.247,0,0,0,2.009.812A35.986,35.986,0,0,0,79,30.25h2a35.986,35.986,0,0,0,4.289-.14A3.247,3.247,0,0,0,87.3,29.3a3.247,3.247,0,0,0,.812-2.009A35.986,35.986,0,0,0,88.25,23V21a35.986,35.986,0,0,0-.14-4.289A3.247,3.247,0,0,0,87.3,14.7a3.247,3.247,0,0,0-2.009-.812c-.17-.023-.35-.042-.539-.058V14a.75.75,0,0,1-1.5,0ZM75,17.25a.75.75,0,0,0,0,1.5H85a.75.75,0,0,0,0-1.5ZM74.25,22a.75.75,0,0,1,.75-.75h6a.75.75,0,0,1,0,1.5H75A.75.75,0,0,1,74.25,22ZM75,25.25a.75.75,0,0,0,0,1.5h3a.75.75,0,0,0,0-1.5Z" transform="translate(-70.25 -10.25)" fill="#fff" fill-rule="evenodd"/>
</svg>
