<svg xmlns="http://www.w3.org/2000/svg" width="22.5" height="19.5" viewBox="0 0 22.5 19.5"><g transform="translate(-199.75 -499.25)"><path d="M20.75,7a.75.75,0,0,0-1.5,0V9.25H17a.75.75,0,0,0,0,1.5h2.25V13a.75.75,0,0,0,1.5,0V10.75H23a.75.75,0,0,0,0-1.5H20.75Z" transform="translate(198.5 497)" fill="#920c63" fill-rule="evenodd"/><path d="M4.25,7A4.75,4.75,0,1,1,9,11.75,4.75,4.75,0,0,1,4.25,7ZM6,14.25A4.75,4.75,0,0,0,1.25,19,2.75,2.75,0,0,0,4,21.75H14A2.75,2.75,0,0,0,16.75,19,4.75,4.75,0,0,0,12,14.25Z" transform="translate(198.5 497)" fill="#920c63" fill-rule="evenodd"/></g></svg>