<svg xmlns="http://www.w3.org/2000/svg" width="17.5" height="20.511" viewBox="0 0 17.5 20.511"><path d="M9.454,3.756A7.9,7.9,0,0,1,12,3.022a7.9,7.9,0,0,1,2.546.734l.869.326a8.57,8.57,0,0,1,2.829,1.339A3.249,3.249,0,0,1,18.99,6.5a8.568,8.568,0,0,1,.261,3.119v1.351a17.111,17.111,0,0,1-.12,2.914,7.25,7.25,0,0,1-2.235,4.033,17.112,17.112,0,0,1-2.407,1.647,8.457,8.457,0,0,1-1.351.767,3.25,3.25,0,0,1-2.273,0,8.461,8.461,0,0,1-1.35-.767,17.106,17.106,0,0,1-2.407-1.647A7.249,7.249,0,0,1,4.87,13.882a17.11,17.11,0,0,1-.12-2.914V9.616A8.569,8.569,0,0,1,5.011,6.5a3.25,3.25,0,0,1,.746-1.076A8.569,8.569,0,0,1,8.586,4.081ZM9.06,2.3h0l-.132.05-.869.326L7.9,2.738a9.135,9.135,0,0,0-3.174,1.6,4.75,4.75,0,0,0-1.09,1.573A9.135,9.135,0,0,0,3.25,9.441v1.614a17.654,17.654,0,0,0,.145,3.1,8.75,8.75,0,0,0,2.7,4.868,17.659,17.659,0,0,0,2.551,1.766l.074.046.072.045h0a9.056,9.056,0,0,0,1.549.855,4.75,4.75,0,0,0,3.322,0,9.055,9.055,0,0,0,1.549-.855l.072-.045.074-.046h0a17.649,17.649,0,0,0,2.551-1.766,8.75,8.75,0,0,0,2.7-4.868,17.653,17.653,0,0,0,.145-3.1h0V9.441a9.134,9.134,0,0,0-.381-3.533,4.751,4.751,0,0,0-1.09-1.573,9.135,9.135,0,0,0-3.174-1.6l-.164-.061-.869-.326L14.94,2.3A8.608,8.608,0,0,0,12,1.522,8.608,8.608,0,0,0,9.06,2.3Zm6.97,7.729A.75.75,0,1,0,14.97,8.97L11,12.939,9.53,11.47A.75.75,0,0,0,8.47,12.53l2,2a.75.75,0,0,0,1.061,0Z" transform="translate(-3.25 -1.522)" fill="#920c63" fill-rule="evenodd"/></svg>