<svg xmlns="http://www.w3.org/2000/svg" xmlns:xlink="http://www.w3.org/1999/xlink" width="104.9" height="104.9" viewBox="0 0 104.9 104.9"><defs><filter id="a" x="0" y="0" width="104.9" height="104.9" filterUnits="userSpaceOnUse"><feOffset dy="5" input="SourceAlpha"/><feGaussianBlur stdDeviation="14" result="b"/><feFlood flood-opacity="0.082"/><feComposite operator="in" in2="b"/><feComposite in="SourceGraphic"/></filter></defs><g transform="translate(42.7 37.7)"><g transform="matrix(1, 0, 0, 1, -42.7, -37.7)" filter="url(#a)"><path d="M35.5,9.75q0,9.75-9.75,9.75T16,9.75Q16,0,25.75,0T35.5,9.75Z" transform="translate(26.7 37.7)" fill="none" stroke="#fff" stroke-width="1.4"/></g><path d="M13,16a1,1,0,1,1-1-1A1,1,0,0,1,13,16Zm-2.25-6a1.25,1.25,0,0,1,2.5,0v.121a1.371,1.371,0,0,1-.4.97L11.47,12.47A.75.75,0,0,0,12.53,13.53l1.379-1.379a2.871,2.871,0,0,0,.841-2.03V10a2.75,2.75,0,0,0-5.5,0v.5a.75.75,0,0,0,1.5,0Z" transform="translate(-2.75 -2.75)" fill="#fff" fill-rule="evenodd"/></g></svg>