<svg xmlns="http://www.w3.org/2000/svg" width="10.036" height="20.338" viewBox="0 0 10.036 20.338"><g transform="translate(-3897 -558.34)"><path d="M3905.8,666.862h-7.557a1.24,1.24,0,0,1,0-2.48h2.539v-9.254h-2.509a1.183,1.183,0,0,1-.878-.369,1.2,1.2,0,0,1-.362-.871,1.244,1.244,0,0,1,.362-.893,1.172,1.172,0,0,1,.878-.376h3.778a1.173,1.173,0,0,1,.878.376,1.246,1.246,0,0,1,.362.893v10.494h2.479a1.246,1.246,0,0,1,.893.362,1.221,1.221,0,0,1,.007,1.756A1.2,1.2,0,0,1,3905.8,666.862Z" transform="translate(0 -88.184)" fill="#920c63"/><rect width="3.8" height="3.8" rx="1.5" transform="translate(3900.118 558.34)" fill="#920c63"/></g></svg>