<svg id="Component_210_1" data-name="Component 210 – 1" xmlns="http://www.w3.org/2000/svg" width="56" height="56" viewBox="0 0 56 56">
  <path id="livres" d="M72,28q0,28-28,28T16,28Q16,0,44,0T72,28Z" transform="translate(-16 0)" fill="#707070" opacity="0.762"/>
  <path id="Path_1173" data-name="Path 1173" d="M1260.906,1192.519h0a6.007,6.007,0,0,0-2.8-5.079l-.162-.1a3.206,3.206,0,0,0-1.713-.5h0a1.824,1.824,0,0,0-1.7,1.154,3.844,3.844,0,0,1-7.013,0,1.824,1.824,0,0,0-1.7-1.154h-.084a3.87,3.87,0,0,0-2.067.6h0a6.007,6.007,0,0,0-2.8,5.079h0a1.816,1.816,0,0,0,1.816,1.816h1.816v8.987a1.816,1.816,0,0,0,1.816,1.816h9.148a1.816,1.816,0,0,0,1.816-1.816v-8.987h1.816A1.816,1.816,0,0,0,1260.906,1192.519Z" transform="translate(-1222.885 -1168.137)" fill="none" stroke="#fff" stroke-miterlimit="10" stroke-width="1.4" fill-rule="evenodd"/>
</svg>
