<svg xmlns="http://www.w3.org/2000/svg" width="21.5" height="17.5" viewBox="0 0 21.5 17.5">
  <path id="Path_1320" data-name="Path 1320" d="M12.75,4a.75.75,0,0,0-1.5,0V20a.75.75,0,0,0,1.5,0ZM7,7.25A.75.75,0,0,1,7.75,8v8a.75.75,0,0,1-1.5,0V8A.75.75,0,0,1,7,7.25Zm-5,3a.75.75,0,0,1,.75.75v2a.75.75,0,0,1-1.5,0V11A.75.75,0,0,1,2,10.25Zm15-3a.75.75,0,0,1,.75.75v8a.75.75,0,0,1-1.5,0V8A.75.75,0,0,1,17,7.25ZM22.75,11a.75.75,0,0,0-1.5,0v2a.75.75,0,0,0,1.5,0Z" transform="translate(-1.25 -3.25)" fill="#b30b80" fill-rule="evenodd"/>
</svg>
