<svg xmlns="http://www.w3.org/2000/svg" width="13.845" height="19.5" viewBox="0 0 13.845 19.5"><path d="M15.947,3.863A36.914,36.914,0,0,0,12,3.75H9.364c-.646,0-1.1,0-1.444.016a2.029,2.029,0,0,0-.549.07A1.25,1.25,0,0,0,6.683,5.5a2.029,2.029,0,0,0,.338.438c.23.253.553.576,1.01,1.033l2.25,2.25A.75.75,0,0,1,9.22,10.28L6.97,8.03l-.015-.015c-.439-.439-.788-.788-1.044-1.07a3.278,3.278,0,0,1-.6-.848A2.75,2.75,0,0,1,6.823,2.441a3.278,3.278,0,0,1,1.026-.173c.381-.018.874-.018,1.5-.018h2.714a37.26,37.26,0,0,1,4.074.124,3.025,3.025,0,0,1,2.38,1.181,2.751,2.751,0,0,1,.336.811A3.025,3.025,0,0,1,18,6.885a37.274,37.274,0,0,1-2.793,2.969l-.041.041L9.895,15.166a36.911,36.911,0,0,0-2.711,2.87c-.574.737-.615,1.069-.572,1.251a1.249,1.249,0,0,0,.153.369c.1.159.362.365,1.289.48A36.9,36.9,0,0,0,12,20.25h2.636c.646,0,1.1,0,1.444-.017a2.033,2.033,0,0,0,.549-.07,1.25,1.25,0,0,0,.689-1.662,2.028,2.028,0,0,0-.338-.438c-.23-.253-.553-.576-1.01-1.033l-2.25-2.25a.75.75,0,0,1,1.061-1.061l2.25,2.25.015.015c.439.439.788.788,1.044,1.07a3.278,3.278,0,0,1,.6.848,2.75,2.75,0,0,1-1.515,3.657,3.278,3.278,0,0,1-1.026.173c-.381.018-.874.018-1.5.018H11.943a37.282,37.282,0,0,1-4.074-.124,3.025,3.025,0,0,1-2.38-1.181,2.748,2.748,0,0,1-.336-.811A3.025,3.025,0,0,1,6,17.115a37.253,37.253,0,0,1,2.793-2.969l.041-.041,5.272-5.272a36.906,36.906,0,0,0,2.711-2.87c.574-.737.615-1.069.572-1.251a1.252,1.252,0,0,0-.153-.369C17.138,4.184,16.874,3.978,15.947,3.863Z" transform="translate(-5.078 -2.25)" fill="#8b8b8b" fill-rule="evenodd"/></svg>