<svg xmlns="http://www.w3.org/2000/svg" width="13.751" height="15.525" viewBox="0 0 13.751 15.525">
  <path id="Path_1206" data-name="Path 1206" d="M180.65,279.25H189.6a8.315,8.315,0,0,1,1.022.038,1.433,1.433,0,0,1,1.34,1.34A8.314,8.314,0,0,1,192,281.65v.04H190.67a7.7,7.7,0,0,0-.027-.884.63.63,0,0,0-.033-.148l0-.009v0h0l-.009,0a.633.633,0,0,0-.148-.033,7.7,7.7,0,0,0-.884-.027h-3.77v12.864h2.883a.665.665,0,0,1,0,1.331h-7.1a.665.665,0,1,1,0-1.331h2.883V280.581h-3.77a7.7,7.7,0,0,0-.884.027.633.633,0,0,0-.148.033l-.009,0h0v0l0,.009a.632.632,0,0,0-.033.148,7.7,7.7,0,0,0-.027.884H178.25v-.04a8.314,8.314,0,0,1,.038-1.022,1.433,1.433,0,0,1,1.34-1.34A8.315,8.315,0,0,1,180.65,279.25Z" transform="translate(-178.25 -279.25)" fill="#b30b80" fill-rule="evenodd"/>
</svg>
