<svg id="Component_211_3" data-name="Component 211 – 3" xmlns="http://www.w3.org/2000/svg" width="17.5" height="21.5" viewBox="0 0 17.5 21.5">
  <path id="Path_1272" data-name="Path 1272" d="M11.948,1.25h.1a18.324,18.324,0,0,1,2.243.08,2.724,2.724,0,0,1,1.65.726,2.724,2.724,0,0,1,.726,1.65,18.322,18.322,0,0,1,.08,2.242h0V7.386a4.445,4.445,0,0,1,1.889.665,4.751,4.751,0,0,1,1.31,1.311,4.827,4.827,0,0,1,.712,2.277c.088.866.088,1.951.088,3.32v.083c0,1.369,0,2.454-.088,3.321a4.827,4.827,0,0,1-.712,2.277,4.753,4.753,0,0,1-1.31,1.31,4.827,4.827,0,0,1-2.277.712c-.866.088-1.951.088-3.321.088H10.958c-1.369,0-2.454,0-3.32-.088a4.827,4.827,0,0,1-2.277-.712,4.751,4.751,0,0,1-1.311-1.31,4.827,4.827,0,0,1-.712-2.277c-.088-.866-.088-1.951-.088-3.321v-.083c0-1.369,0-2.454.088-3.32a4.826,4.826,0,0,1,.712-2.277A4.75,4.75,0,0,1,5.361,8.051,4.445,4.445,0,0,1,7.25,7.386V5.948a18.324,18.324,0,0,1,.08-2.242,2.724,2.724,0,0,1,.726-1.65,2.724,2.724,0,0,1,1.65-.726A18.324,18.324,0,0,1,11.948,1.25ZM15.25,6V7.27c-.64-.02-1.371-.02-2.208-.02H10.958c-.837,0-1.569,0-2.208.02V6a17.736,17.736,0,0,1,.067-2.095,1.264,1.264,0,0,1,.3-.789,1.264,1.264,0,0,1,.789-.3A17.736,17.736,0,0,1,12,2.75a17.736,17.736,0,0,1,2.095.067,1.264,1.264,0,0,1,.789.3,1.265,1.265,0,0,1,.3.789A17.75,17.75,0,0,1,15.25,6ZM7.79,8.83a3.37,3.37,0,0,0-1.6.467,3.25,3.25,0,0,0-.9.9,3.37,3.37,0,0,0-.467,1.6c-.08.781-.08,1.79-.08,3.21s0,2.429.08,3.21a3.37,3.37,0,0,0,.467,1.6,3.25,3.25,0,0,0,.9.9,3.369,3.369,0,0,0,1.6.467c.782.08,1.79.08,3.21.08h2c1.42,0,2.429,0,3.21-.08a3.369,3.369,0,0,0,1.6-.467,3.249,3.249,0,0,0,.9-.9,3.369,3.369,0,0,0,.467-1.6c.08-.781.08-1.79.08-3.21s0-2.429-.08-3.21a3.369,3.369,0,0,0-.467-1.6,3.249,3.249,0,0,0-.9-.9,3.37,3.37,0,0,0-1.6-.467c-.781-.08-1.79-.08-3.21-.08H11C9.58,8.75,8.571,8.751,7.79,8.83ZM12.75,14a.75.75,0,0,0-1.5,0v2a.75.75,0,0,0,1.5,0Z" transform="translate(-3.25 -1.25)" fill="#b30b80" fill-rule="evenodd"/>
</svg>
