<svg xmlns="http://www.w3.org/2000/svg" width="21.449" height="20.828" viewBox="0 0 21.449 20.828"><path d="M1819.348,1796.421a3.86,3.86,0,1,0-1.8-7.483,3.881,3.881,0,0,0-.558.236.409.409,0,0,1-.589-.428,3.862,3.862,0,1,0-7.619,0,.409.409,0,0,1-.589.428,3.862,3.862,0,1,0-2.355,7.246.409.409,0,0,1,.225.692,3.862,3.862,0,1,0,6.164,4.479.409.409,0,0,1,.728,0,3.862,3.862,0,1,0,6.165-4.478.409.409,0,0,1,.225-.692Zm-6.753,1.51a3.451,3.451,0,1,1,3.451-3.451A3.455,3.455,0,0,1,1812.595,1797.931Z" transform="translate(-1801.87 -1783.581)" fill="none" stroke="#7f2056" stroke-miterlimit="10" stroke-width="1.4"/></svg>