<svg xmlns="http://www.w3.org/2000/svg" width="19.5" height="19.5" viewBox="0 0 19.5 19.5"><path d="M2.624,2.351a.75.75,0,0,1,.749,0L6.5,4.136,9.628,2.349a.75.75,0,0,1,.744,0L13.5,4.136l3.128-1.787A.75.75,0,0,1,17.75,3v8.25H21a.75.75,0,0,1,.75.75v7A2.75,2.75,0,0,1,19,21.75H8.945a27.434,27.434,0,0,1-3.337-.117,3.717,3.717,0,0,1-2.26-.982,3.718,3.718,0,0,1-.982-2.26,27.418,27.418,0,0,1-.117-3.337V3A.75.75,0,0,1,2.624,2.351ZM19,20.25A1.25,1.25,0,0,0,20.25,19V12.75h-2.5V19A1.25,1.25,0,0,0,19,20.25Zm-2.45,0H9a26.878,26.878,0,0,1-3.192-.1,2.255,2.255,0,0,1-1.4-.556,2.255,2.255,0,0,1-.556-1.4A26.864,26.864,0,0,1,3.75,15V4.292L6.128,5.651a.75.75,0,0,0,.744,0L10,3.864l3.128,1.787a.75.75,0,0,0,.744,0L16.25,4.292V19A2.737,2.737,0,0,0,16.55,20.25ZM6.25,9A.75.75,0,0,1,7,8.25h4a.75.75,0,0,1,0,1.5H7A.75.75,0,0,1,6.25,9ZM7,12.25a.75.75,0,0,0,0,1.5h6a.75.75,0,0,0,0-1.5ZM6.25,17A.75.75,0,0,1,7,16.25h6a.75.75,0,0,1,0,1.5H7A.75.75,0,0,1,6.25,17Z" transform="translate(-2.25 -2.25)" fill="#9d0970" fill-rule="evenodd"/></svg>