<svg id="Component_209_1" data-name="Component 209 – 1" xmlns="http://www.w3.org/2000/svg" width="56" height="56" viewBox="0 0 56 56">
  <g id="Group_2470" data-name="Group 2470" transform="translate(0 0)">
    <path id="livres" d="M72,28q0,28-28,28T16,28Q16,0,44,0T72,28Z" transform="translate(-16)" fill="#b30b80"/>
  </g>
  <path id="Path_1302" data-name="Path 1302" d="M16.095,3.817A17.736,17.736,0,0,0,14,3.75H4a1.25,1.25,0,0,0,0,2.5H17.248a11.252,11.252,0,0,0-.065-1.345,1.265,1.265,0,0,0-.3-.789A1.264,1.264,0,0,0,16.095,3.817ZM4,2.25A2.75,2.75,0,0,0,1.25,5V15.055a27.418,27.418,0,0,0,.117,3.337,3.718,3.718,0,0,0,.982,2.26,3.717,3.717,0,0,0,2.26.982,27.434,27.434,0,0,0,3.337.117h8.11a27.435,27.435,0,0,0,3.337-.117,3.718,3.718,0,0,0,2.26-.982,3.718,3.718,0,0,0,.982-2.26,19.243,19.243,0,0,0,.115-2.337c0-.018,0-.036,0-.055V12c0-.018,0-.036,0-.054a19.242,19.242,0,0,0-.115-2.337,3.717,3.717,0,0,0-.982-2.26,3.718,3.718,0,0,0-2.26-.982c-.2-.027-.416-.048-.643-.064a13.108,13.108,0,0,0-.079-1.6,2.724,2.724,0,0,0-.726-1.65,2.724,2.724,0,0,0-1.65-.726,18.324,18.324,0,0,0-2.243-.08H4Zm17.239,9a13.225,13.225,0,0,0-.092-1.442,2.255,2.255,0,0,0-.556-1.4,2.255,2.255,0,0,0-1.4-.556A26.863,26.863,0,0,0,16,7.75H4a2.738,2.738,0,0,1-1.25-.3V15a26.864,26.864,0,0,0,.1,3.192,2.255,2.255,0,0,0,.556,1.4,2.255,2.255,0,0,0,1.4.556A26.878,26.878,0,0,0,8,20.25h8a26.879,26.879,0,0,0,3.192-.1,2.255,2.255,0,0,0,1.4-.556,2.255,2.255,0,0,0,.556-1.4,13.226,13.226,0,0,0,.092-1.442H20a2.75,2.75,0,0,1,0-5.5ZM21.25,15V12.75H20a1.25,1.25,0,0,0,0,2.5h1.25Z" transform="translate(15.75 15.75)" fill="#fff" fill-rule="evenodd"/>
</svg>
