<svg id="Component_211_3" data-name="Component 211 – 3" xmlns="http://www.w3.org/2000/svg" width="21.5" height="21.5" viewBox="0 0 21.5 21.5">
  <path id="Path_1282" data-name="Path 1282" d="M12,2.75A9.25,9.25,0,1,0,21.25,12,9.25,9.25,0,0,0,12,2.75ZM1.25,12A10.75,10.75,0,1,1,12,22.75,10.75,10.75,0,0,1,1.25,12Zm9.417,1.75A1.917,1.917,0,0,0,8.75,15.667a.583.583,0,0,0,.583.583h5.333a.583.583,0,0,0,.583-.583,1.917,1.917,0,0,0-1.917-1.917ZM7.25,15.667a3.417,3.417,0,0,1,3.417-3.417h2.667a3.417,3.417,0,0,1,3.417,3.417,2.083,2.083,0,0,1-2.083,2.083H9.333A2.083,2.083,0,0,1,7.25,15.667ZM10.75,8A1.25,1.25,0,1,1,12,9.25,1.25,1.25,0,0,1,10.75,8ZM12,5.25A2.75,2.75,0,1,0,14.75,8,2.75,2.75,0,0,0,12,5.25Z" transform="translate(-1.25 -1.25)" fill="#b30b80" fill-rule="evenodd"/>
</svg>
