<svg xmlns="http://www.w3.org/2000/svg" width="234.242" height="58.86" viewBox="0 0 234.242 58.86">
  <g id="Group_1139" data-name="Group 1139" transform="translate(-373.467 -338.903)">
    <g id="Group_1137" data-name="Group 1137" transform="translate(373.467 338.903)">
      <g id="Group_1136" data-name="Group 1136" transform="translate(20.207 20.492)">
        <path id="Path_480" data-name="Path 480" d="M488.811,469.648l4.377-11.746a7.775,7.775,0,0,1,7.285-5.06H502.6v27.785h0a4.717,4.717,0,0,1-4.717-4.717v-17.2h-.2c-2.3,6.1-4.677,12.248-6.976,18.352h-4.36l-6.9-18.352h-.238v17.361a4.558,4.558,0,0,1-4.558,4.558h0V452.842h2.3a7.775,7.775,0,0,1,7.28,5.045l4.41,11.761Z" transform="translate(-474.661 -450.583)" fill="#b30b80"/>
        <path id="Path_481" data-name="Path 481" d="M658.686,500.013c-1.625,1.268-3.845,2.3-7.65,2.3-6.738,0-10.226-3.686-10.226-11.495,0-7.491,4.162-11.376,9.989-11.376,5.47,0,8.561,3.488,8.561,8.839a29.684,29.684,0,0,1-.238,3.884H645.606c.159,4.2,1.982,6.183,5.985,6.183a7.683,7.683,0,0,0,2.136-.3,4.392,4.392,0,0,1,4.959,1.965Zm-13-11.257h9.037v-.872c0-3.013-1.308-4.637-4.122-4.637C647.865,483.246,645.844,485.148,645.686,488.755Z" transform="translate(-607.633 -471.87)" fill="#b30b80"/>
        <path id="Path_482" data-name="Path 482" d="M748.041,486.021c0-3.449,2.933-6.58,7.967-6.58,3.488,0,5.985,1.229,7.412,2.814l-3.131,3.171a6.136,6.136,0,0,0-4.4-1.981c-1.982,0-3.012.991-3.012,2.3,0,3.924,10.7,2.458,10.7,9.869,0,2.973-2.418,6.7-8.4,6.7a11.908,11.908,0,0,1-8.561-3.131h0a5.125,5.125,0,0,1,5.854-1.428,7.712,7.712,0,0,0,2.945.6c2.3,0,3.29-1.11,3.29-2.457C758.7,492.006,748.041,493.433,748.041,486.021Z" transform="translate(-692.31 -471.87)" fill="#b30b80"/>
        <path id="Path_483" data-name="Path 483" d="M844.909,486.021c0-3.449,2.933-6.58,7.967-6.58,3.488,0,5.985,1.229,7.412,2.814l-3.131,3.171a6.136,6.136,0,0,0-4.4-1.981c-1.982,0-3.012.991-3.012,2.3,0,3.924,10.7,2.458,10.7,9.869,0,2.973-2.418,6.7-8.4,6.7a11.908,11.908,0,0,1-8.561-3.131h0a5.126,5.126,0,0,1,5.855-1.428,7.713,7.713,0,0,0,2.945.6c2.3,0,3.29-1.11,3.29-2.457C855.571,492.006,844.909,493.433,844.909,486.021Z" transform="translate(-769.835 -471.87)" fill="#b30b80"/>
        <path id="Path_484" data-name="Path 484" d="M962.04,486.694v9.275c0,1.506.515,2.378,1.744,2.378h.595v3.409a4.248,4.248,0,0,1-2.26.555,4.052,4.052,0,0,1-4-2.5h-.158a7.047,7.047,0,0,1-5.985,2.656c-4.2,0-6.461-2.933-6.461-6.025,0-4.994,4.677-7.372,11.931-7.095v-1.982c0-2.894-1.506-3.726-3.726-3.726a4.988,4.988,0,0,0-2.211.471,5.325,5.325,0,0,1-5.518-.551h0a8.942,8.942,0,0,1,7.729-3.924C959.028,479.639,962.04,481.621,962.04,486.694Zm-4.6,6.064c-4.4-.237-7.134.793-7.134,3.25a2.621,2.621,0,0,0,2.933,2.656,5.142,5.142,0,0,0,4.2-2.1Z" transform="translate(-851.491 -472.029)" fill="#b30b80"/>
        <path id="Path_485" data-name="Path 485" d="M1077.963,501.438h0a4.915,4.915,0,0,1-4.915-4.915v-9.275c0-2.7-1.269-4.2-3.647-4.2a4.8,4.8,0,0,0-4.479,3.092v10.424a4.875,4.875,0,0,1-4.876,4.876h0V479.36h3.766l.991,2.18h.159a8.106,8.106,0,0,1,6.064-2.7c4.36,0,6.9,2.378,6.936,7.333Z" transform="translate(-943.155 -471.393)" fill="#b30b80"/>
        <path id="Path_486" data-name="Path 486" d="M1190.83,502c0,5.946-3.964,8.878-9.711,8.878-4.994,0-7.174-1.506-8.284-2.774h0a5.017,5.017,0,0,1,5.628-1.72,8.466,8.466,0,0,0,2.775.451c3.409,0,4.836-1.427,4.836-4.876v-1.466h-.159a7.247,7.247,0,0,1-4.756,1.427c-4.559,0-8.562-2.457-8.562-10.226,0-6.54,3.488-11.455,10.741-11.455a17.578,17.578,0,0,1,7.491,1.268Zm-7.65-17.837c-3.527,0-5.707,2.418-5.707,7.214,0,5.232,2.061,6.54,4.875,6.54a4.838,4.838,0,0,0,3.686-1.506V484.634A7.981,7.981,0,0,0,1183.18,484.159Z" transform="translate(-1033.231 -472.506)" fill="#b30b80"/>
        <path id="Path_487" data-name="Path 487" d="M1305.209,500.013c-1.625,1.268-3.845,2.3-7.65,2.3-6.738,0-10.226-3.686-10.226-11.495,0-7.491,4.161-11.376,9.989-11.376,5.469,0,8.561,3.488,8.561,8.839a29.685,29.685,0,0,1-.238,3.884h-13.516c.158,4.2,1.981,6.183,5.985,6.183a7.685,7.685,0,0,0,2.136-.3,4.392,4.392,0,0,1,4.959,1.965Zm-13-11.257h9.037v-.872c0-3.013-1.308-4.637-4.122-4.637C1294.388,483.246,1292.367,485.148,1292.208,488.755Z" transform="translate(-1125.056 -471.87)" fill="#b30b80"/>
        <path id="Path_488" data-name="Path 488" d="M1409.722,441.528V465.27c0,1.744.713,2.378,2.021,2.378a2.929,2.929,0,0,0,1.189-.2v3.924a7.117,7.117,0,0,1-2.786.515,5.329,5.329,0,0,1-5.3-5.351V446.4a4.875,4.875,0,0,1,4.875-4.875Z" transform="translate(-1219.105 -441.528)" fill="#b30b80"/>
      </g>
      <path id="Path_489" data-name="Path 489" d="M596.287,352.6c-5.968-2.73-14.406-5.162-25.08-7.228C549.635,341.2,521,338.9,490.588,338.9s-59.048,2.3-80.619,6.473c-10.673,2.066-19.112,4.5-25.08,7.228-2.825,1.293-11.422,5.226-11.422,12.725s8.6,11.431,11.422,12.724q1.744.8,3.771,1.561V379.5a7.4,7.4,0,0,0-4.026-6.549c-4.565-2.374-7.061-4.944-7.061-7.625,0-12.079,50.6-21.871,113.015-21.871S603.6,353.25,603.6,365.329c0,2.682-2.5,5.251-7.061,7.625a7.4,7.4,0,0,0-4.026,6.549v.112q2.023-.764,3.771-1.561c2.825-1.293,11.422-5.226,11.422-12.724S599.112,353.9,596.287,352.6Z" transform="translate(-373.467 -338.903)" fill="#b30b80"/>
    </g>
  </g>
</svg>
