<svg xmlns="http://www.w3.org/2000/svg" width="19.073" height="15.525" viewBox="0 0 19.073 15.525">
  <g id="Group_2782" data-name="Group 2782" transform="translate(-9.552 -12.004)">
    <path id="Path_305" data-name="Path 305" d="M54.012,279.25h-.05a32.44,32.44,0,0,0-3.932.136,3.755,3.755,0,0,0-3.644,3.644,32.426,32.426,0,0,0-.136,3.933h0v.1h0a32.425,32.425,0,0,0,.136,3.933,3.755,3.755,0,0,0,3.644,3.644,32.44,32.44,0,0,0,3.932.136h.1a32.439,32.439,0,0,0,3.932-.136,3.755,3.755,0,0,0,3.644-3.644c0-.027.007-.056.011-.084a12.073,12.073,0,0,0,1.306.9,1.429,1.429,0,0,0,2.3-1.15,13.932,13.932,0,0,0,.068-1.816v-3.655a13.932,13.932,0,0,0-.068-1.816,1.429,1.429,0,0,0-2.3-1.15,12.078,12.078,0,0,0-1.306.9c0-.028-.007-.057-.011-.084a3.755,3.755,0,0,0-3.644-3.644,32.44,32.44,0,0,0-3.932-.136h-.05Zm7.762,7.629v-1.64c0-.229,0-.358.009-.454a.536.536,0,0,1,.011-.078l0-.009v0h0l.006-.008a.542.542,0,0,1,.056-.055c.072-.065.175-.143.358-.28a13.593,13.593,0,0,1,1.373-.963,1,1,0,0,1,.274-.114,1.013,1.013,0,0,1,.072.288,13.523,13.523,0,0,1,.054,1.676v3.549a13.523,13.523,0,0,1-.054,1.676,1.013,1.013,0,0,1-.072.288,1,1,0,0,1-.274-.114,13.6,13.6,0,0,1-1.373-.963c-.183-.138-.286-.216-.358-.28a.545.545,0,0,1-.056-.055l0-.005,0,0h0v0l0-.009a.536.536,0,0,1-.011-.077c-.009-.1-.009-.225-.009-.454v-1.641m-1.331-.134a31.921,31.921,0,0,1-.124,3.8,2.461,2.461,0,0,1-2.5,2.5,31.951,31.951,0,0,1-3.805.124,31.951,31.951,0,0,1-3.805-.124,2.461,2.461,0,0,1-2.5-2.5,58.428,58.428,0,0,1,0-7.61,2.461,2.461,0,0,1,2.5-2.5,31.952,31.952,0,0,1,3.805-.124,31.952,31.952,0,0,1,3.805.124,2.461,2.461,0,0,1,2.5,2.5A31.922,31.922,0,0,1,60.444,287.012Zm3.453-3.74s0,0-.012,0A.021.021,0,0,1,63.9,283.272Zm-.041-.015a.037.037,0,0,1-.008-.009S63.852,283.25,63.856,283.257Zm-.008,7.519a.024.024,0,0,1,.008-.009C63.852,290.775,63.849,290.777,63.848,290.777Zm.037-.023c.007,0,.011,0,.012,0A.02.02,0,0,1,63.885,290.754Z" transform="translate(-36.698 -267.246)" fill="#b30b80" fill-rule="evenodd"/>
  </g>
</svg>
