<svg xmlns="http://www.w3.org/2000/svg" width="17.5" height="12.75" viewBox="0 0 17.5 12.75">
  <path id="Path_1161" data-name="Path 1161" d="M14.47,4.47a.75.75,0,0,1,1.061,0l5,5a.75.75,0,0,1,0,1.061l-5,5A.75.75,0,0,1,14.47,14.47l3.72-3.72H11c-1.42,0-2.429,0-3.21.08a3.369,3.369,0,0,0-1.6.467,3.25,3.25,0,0,0-.9.9,3.37,3.37,0,0,0-.467,1.6c-.08.781-.08,1.79-.08,3.21H3.25v-.042c0-1.369,0-2.454.088-3.321a4.827,4.827,0,0,1,.712-2.277A4.751,4.751,0,0,1,5.361,10.05a4.826,4.826,0,0,1,2.277-.712c.866-.088,1.951-.088,3.32-.088h7.231L14.47,5.53A.75.75,0,0,1,14.47,4.47Z" transform="translate(-3.25 -4.25)" fill="#920c63" fill-rule="evenodd"/>
</svg>
