<svg xmlns="http://www.w3.org/2000/svg" width="23.5" height="16.5" viewBox="0 0 23.5 16.5">
  <path id="Path_704" data-name="Path 704" d="M6.948,4.25H18.025c.444,0,.816,0,1.12.021a2.823,2.823,0,0,1,.907.189,2.75,2.75,0,0,1,1.488,1.488,2.822,2.822,0,0,1,.188.907c.011.166.017.352.019.559a2.451,2.451,0,0,1,1.2.642,2.724,2.724,0,0,1,.726,1.65,18.321,18.321,0,0,1,.08,2.242h0v4.1h0a18.322,18.322,0,0,1-.08,2.242,2.485,2.485,0,0,1-2.376,2.376,18.322,18.322,0,0,1-2.242.08H3.4A3.15,3.15,0,0,1,.25,17.6,1.35,1.35,0,0,1,1.6,16.25h.65v-7.3a18.322,18.322,0,0,1,.08-2.242,2.724,2.724,0,0,1,.726-1.65,2.724,2.724,0,0,1,1.65-.726A18.324,18.324,0,0,1,6.948,4.25ZM20.233,6.957c.006.09.01.189.013.3-.363-.009-.761-.009-1.193-.009h-.1a18.324,18.324,0,0,0-2.243.08,2.724,2.724,0,0,0-1.65.726,2.724,2.724,0,0,0-.726,1.65,18.322,18.322,0,0,0-.08,2.242v4.3H3.75V9a17.736,17.736,0,0,1,.067-2.095,1.264,1.264,0,0,1,.3-.789,1.264,1.264,0,0,1,.789-.3A17.736,17.736,0,0,1,7,5.75H18c.476,0,.8,0,1.043.017a1.38,1.38,0,0,1,.435.078,1.25,1.25,0,0,1,.677.676A1.381,1.381,0,0,1,20.233,6.957Zm.862,12.227A17.749,17.749,0,0,1,19,19.25a17.749,17.749,0,0,1-2.095-.066,1.029,1.029,0,0,1-1.089-1.089A17.749,17.749,0,0,1,15.75,16V12a17.749,17.749,0,0,1,.066-2.095,1.265,1.265,0,0,1,.3-.789,1.264,1.264,0,0,1,.789-.3A17.736,17.736,0,0,1,19,8.75a17.736,17.736,0,0,1,2.095.067,1.264,1.264,0,0,1,.789.3,1.265,1.265,0,0,1,.3.789A17.749,17.749,0,0,1,22.25,12v4a17.749,17.749,0,0,1-.066,2.095,1.029,1.029,0,0,1-1.089,1.089ZM19,12a1,1,0,1,0-1-1A1,1,0,0,0,19,12Z" transform="translate(-0.25 -4.25)" fill="#b30b80" fill-rule="evenodd"/>
</svg>
