<svg xmlns="http://www.w3.org/2000/svg" width="19.5" height="21.5" viewBox="0 0 19.5 21.5">
  <path id="Path_1316" data-name="Path 1316" d="M8.75,1a.75.75,0,0,0-1.5,0V2.273q-.281.011-.53.031A4.887,4.887,0,0,0,4.9,2.74,4.75,4.75,0,0,0,2.74,4.9,4.887,4.887,0,0,0,2.3,6.72C2.25,7.4,2.25,8.24,2.25,9.3v3.755A36.529,36.529,0,0,0,2.4,17.489a4.711,4.711,0,0,0,1.238,2.87A4.712,4.712,0,0,0,6.511,21.6a36.546,36.546,0,0,0,4.433.153h2.113a36.545,36.545,0,0,0,4.432-.153,4.712,4.712,0,0,0,2.87-1.238,4.712,4.712,0,0,0,1.238-2.87,36.545,36.545,0,0,0,.153-4.432h0V10.944h0A36.546,36.546,0,0,0,21.6,6.511a4.711,4.711,0,0,0-1.238-2.87A4.711,4.711,0,0,0,17.489,2.4q-.349-.047-.739-.076V1a.75.75,0,0,0-1.5,0V2.263c-.662-.013-1.391-.013-2.194-.013H8.75Zm6.5,3V3.763C14.6,3.75,13.854,3.75,13,3.75H8.75V4a.75.75,0,0,1-1.5,0V3.774c-.146.006-.282.015-.411.025a3.434,3.434,0,0,0-1.276.286A3.25,3.25,0,0,0,4.085,5.563,3.434,3.434,0,0,0,3.8,6.839c-.049.612-.049,1.394-.049,2.495V13a35.994,35.994,0,0,0,.14,4.289A3.247,3.247,0,0,0,4.7,19.3a3.247,3.247,0,0,0,2.009.812A35.984,35.984,0,0,0,11,20.25h2a35.986,35.986,0,0,0,4.289-.14A3.247,3.247,0,0,0,19.3,19.3a3.247,3.247,0,0,0,.812-2.009A35.986,35.986,0,0,0,20.25,13V11a35.984,35.984,0,0,0-.14-4.289A3.247,3.247,0,0,0,19.3,4.7a3.247,3.247,0,0,0-2.009-.812c-.17-.023-.35-.042-.539-.058V4a.75.75,0,0,1-1.5,0ZM7,7.25a.75.75,0,0,0,0,1.5H17a.75.75,0,0,0,0-1.5Z" transform="translate(-2.25 -0.25)" fill="#fff" fill-rule="evenodd"/>
</svg>
