<svg xmlns="http://www.w3.org/2000/svg" width="21.5" height="19.5" viewBox="0 0 21.5 19.5"><path d="M4.75,7A3.25,3.25,0,1,1,8,10.25,3.25,3.25,0,0,1,4.75,7ZM8,2.25A4.75,4.75,0,1,0,12.75,7,4.75,4.75,0,0,0,8,2.25Zm6,0a.75.75,0,0,0,0,1.5,3.25,3.25,0,0,1,0,6.5.75.75,0,0,0,0,1.5,4.75,4.75,0,0,0,0-9.5ZM6,15.75A3.25,3.25,0,0,0,2.75,19,1.25,1.25,0,0,0,4,20.25h8A1.25,1.25,0,0,0,13.25,19,3.25,3.25,0,0,0,10,15.75ZM1.25,19A4.75,4.75,0,0,1,6,14.25h4A4.75,4.75,0,0,1,14.75,19,2.75,2.75,0,0,1,12,21.75H4A2.75,2.75,0,0,1,1.25,19ZM16,14.25a.75.75,0,0,0,0,1.5h2A3.25,3.25,0,0,1,21.25,19,1.25,1.25,0,0,1,20,20.25H16a.75.75,0,0,0,0,1.5h4A2.75,2.75,0,0,0,22.75,19,4.75,4.75,0,0,0,18,14.25Z" transform="translate(-1.25 -2.25)" fill="#9d0970" fill-rule="evenodd"/></svg>